<?xml version="1.0" encoding="UTF-8" standalone="no"?>
<!-- Created with Inkscape (http://www.inkscape.org/) -->

<svg
   xmlns:dc="http://purl.org/dc/elements/1.1/"
   xmlns:cc="http://creativecommons.org/ns#"
   xmlns:rdf="http://www.w3.org/1999/02/22-rdf-syntax-ns#"
   xmlns:svg="http://www.w3.org/2000/svg"
   xmlns="http://www.w3.org/2000/svg"
   xmlns:sodipodi="http://sodipodi.sourceforge.net/DTD/sodipodi-0.dtd"
   xmlns:inkscape="http://www.inkscape.org/namespaces/inkscape"
   width="41mm"
   height="63mm"
   viewBox="0 0 145.27559 223.22835"
   id="svg2"
   version="1.1"
   inkscape:version="0.91 r13725"
   sodipodi:docname="DemandDebt.svg">
  <defs
     id="defs4" />
  <sodipodi:namedview
     id="base"
     pagecolor="#ffffff"
     bordercolor="#666666"
     borderopacity="1.0"
     inkscape:pageopacity="0.0"
     inkscape:pageshadow="2"
     inkscape:zoom="1.8101934"
     inkscape:cx="-10.290749"
     inkscape:cy="62.480887"
     inkscape:document-units="px"
     inkscape:current-layer="layer1"
     showgrid="false"
     inkscape:window-width="1920"
     inkscape:window-height="1017"
     inkscape:window-x="-8"
     inkscape:window-y="-8"
     inkscape:window-maximized="1" />
  <metadata
     id="metadata7">
    <rdf:RDF>
      <cc:Work
         rdf:about="">
        <dc:format>image/svg+xml</dc:format>
        <dc:type
           rdf:resource="http://purl.org/dc/dcmitype/StillImage" />
        <dc:title></dc:title>
      </cc:Work>
    </rdf:RDF>
  </metadata>
  <g
     inkscape:label="Layer 1"
     inkscape:groupmode="layer"
     id="layer1"
     transform="translate(0,-829.13386)">
    <rect
       style="fill:#b1b2b3;fill-opacity:0.79402983;stroke:#0099ff;stroke-width:7.06061077;stroke-miterlimit:4;stroke-dasharray:none;stroke-dashoffset:0;stroke-opacity:0"
       id="rect4162-2"
       width="131.10355"
       height="208.33664"
       x="7.6842871"
       y="836.3905" />
    <path
       style="fill:none;fill-rule:evenodd;stroke:#000000;stroke-width:2.34545517;stroke-linecap:butt;stroke-linejoin:miter;stroke-miterlimit:4;stroke-dasharray:none;stroke-opacity:1"
       d="m 7.2306927,848.99002 c -0.02693,-12.85551 -0.04584,-12.83975 12.6847623,-12.66367"
       id="path4196"
       inkscape:connector-curvature="0"
       sodipodi:nodetypes="cc" />
    <path
       style="fill:none;fill-rule:evenodd;stroke:#000000;stroke-width:2.34545517;stroke-linecap:butt;stroke-linejoin:miter;stroke-miterlimit:4;stroke-dasharray:none;stroke-opacity:1"
       d="m 138.01684,848.98418 c 0.0269,-12.85551 0.0458,-12.83975 -12.68476,-12.66367"
       id="path4196-7"
       inkscape:connector-curvature="0"
       sodipodi:nodetypes="cc" />
    <path
       style="fill:none;fill-rule:evenodd;stroke:#000000;stroke-width:2.34545517;stroke-linecap:butt;stroke-linejoin:miter;stroke-miterlimit:4;stroke-dasharray:none;stroke-opacity:1"
       d="m 7.2719293,1032.4412 c -0.02693,12.8555 -0.04584,12.8398 12.6847627,12.6637"
       id="path4196-6"
       inkscape:connector-curvature="0"
       sodipodi:nodetypes="cc" />
    <path
       style="fill:none;fill-rule:evenodd;stroke:#000000;stroke-width:2.34545517;stroke-linecap:butt;stroke-linejoin:miter;stroke-miterlimit:4;stroke-dasharray:none;stroke-opacity:1"
       d="m 138.05807,1032.4471 c 0.0269,12.8555 0.0458,12.8397 -12.68476,12.6636"
       id="path4196-7-5"
       inkscape:connector-curvature="0"
       sodipodi:nodetypes="cc" />
    <flowRoot
       xml:space="preserve"
       id="flowRoot4231"
       style="font-style:normal;font-variant:normal;font-weight:normal;font-stretch:normal;line-height:0.01%;font-family:'Franklin Gothic Medium';-inkscape-font-specification:'Franklin Gothic Medium, ';text-align:center;letter-spacing:0px;word-spacing:0px;text-anchor:middle;fill:#000000;fill-opacity:1;stroke:none;stroke-width:1px;stroke-linecap:butt;stroke-linejoin:miter;stroke-opacity:1;font-size:27.5px;"
       transform="translate(0,833.00886)"><flowRegion
         id="flowRegion4233"
         style="font-size:30px"><rect
           id="rect4235"
           width="128.91885"
           height="36.012482"
           x="7.8879333"
           y="25.192633"
           style="font-style:normal;font-variant:normal;font-weight:normal;font-stretch:normal;font-size:27.5px;font-family:'Franklin Gothic Medium';-inkscape-font-specification:'Franklin Gothic Medium, ';text-align:center;text-anchor:middle;" /></flowRegion><flowPara
         id="flowPara4237"
         style="font-size:27.5px;line-height:1.25;">Debt</flowPara></flowRoot>    <g
       transform="translate(-1.4305115e-6,0.00194418)"
       id="g6881">
      <rect
         y="836.73718"
         x="45.267857"
         height="14.732142"
         width="54.727795"
         id="rect4162"
         style="fill:#e6e6e6;fill-opacity:1;stroke:none;stroke-width:3.59033203;stroke-miterlimit:4;stroke-dasharray:none;stroke-dashoffset:0;stroke-opacity:1" />
      <g
         id="g6842">
        <rect
           style="fill:#e6e6e6;fill-opacity:0;stroke:#000000;stroke-width:1.77165353;stroke-miterlimit:4;stroke-dasharray:none;stroke-dashoffset:0;stroke-opacity:1"
           id="rect4138"
           width="54.285713"
           height="16.785715"
           x="45.494938"
           y="835.18872" />
        <flowRoot
           xml:space="preserve"
           id="flowRoot4140"
           style="font-style:normal;font-variant:normal;font-weight:normal;font-stretch:normal;line-height:0.01%;font-family:'Franklin Gothic Medium';-inkscape-font-specification:'Franklin Gothic Medium, ';text-align:center;letter-spacing:0px;word-spacing:0px;text-anchor:middle;fill:#000000;fill-opacity:1;stroke:none;stroke-width:1px;stroke-linecap:butt;stroke-linejoin:miter;stroke-opacity:1"
           transform="translate(20.455589,801.46773)"><flowRegion
             id="flowRegion4142"><rect
               id="rect4144"
               width="54.512798"
               height="13.861483"
               x="24.812267"
               y="36.645214"
               style="font-style:normal;font-variant:normal;font-weight:normal;font-stretch:normal;font-size:10px;font-family:'Franklin Gothic Medium';-inkscape-font-specification:'Franklin Gothic Medium, ';text-align:center;text-anchor:middle" /></flowRegion><flowPara
             id="flowPara4146"
             style="font-size:10px;line-height:1.25">Demand</flowPara></flowRoot>      </g>
    </g>
    <rect
       style="fill:none;stroke:#000000;stroke-width:8.43334675;stroke-miterlimit:4;stroke-dasharray:none;stroke-dashoffset:0;stroke-opacity:1"
       id="rect4136"
       width="136.84224"
       height="214.795"
       x="4.2166734"
       y="833.35052" />
    <g
       id="g4193"
       transform="matrix(0.44731451,0,0,0.44731451,24.111125,780.40511)">
      <g
         id="g4153">
        <path
           id="path4155"
           d="m 80.962141,377.0631 c 44.697849,0 80.962139,-18.13215 80.962139,-40.48107 0,-22.34893 -36.26429,-40.48107 -80.962139,-40.48107 C 36.238148,296.10096 0,314.2331 0,336.58203 0,358.93095 36.238148,377.0631 80.962141,377.0631 Z m 11.174462,-34.65644 c -2.266518,-0.73793 -7.326652,-1.634 -15.127692,-2.7409 -7.036959,-0.97534 -12.518771,-1.95026 -16.472,-2.89904 -3.95323,-0.94877 -7.168523,-2.27959 -9.64588,-3.99286 -2.451214,-1.72635 -3.689681,-3.72932 -3.689681,-5.99584 0,-2.99138 2.213808,-5.69265 6.615281,-8.07766 4.401473,-2.38501 11.332592,-3.84781 20.794198,-4.38798 l 0,-4.71773 12.78232,0 0,4.71773 c 14.284341,0.68523 23.535101,3.92709 27.725321,9.69859 L 97.513417,326.91 c -3.426133,-3.9663 -8.723671,-5.95619 -15.918338,-5.95619 -3.610827,0 -6.509862,0.44824 -8.697105,1.33081 -2.187243,0.88257 -3.268003,1.96333 -3.268003,3.22837 0,1.2781 1.054195,2.26651 3.162584,2.95174 2.082245,0.68523 6.615281,1.54165 13.520256,2.55663 7.5902,1.10691 13.546399,2.1611 17.842449,3.13644 4.3222,0.98842 7.7749,2.35887 10.35725,4.08522 2.55664,1.73942 3.84781,3.76895 3.84781,6.08818 0,3.58426 -2.66163,6.54908 -7.95916,8.93451 -5.32369,2.37194 -12.992741,3.78203 -23.007589,4.20371 l 0,6.09999 -12.78232,0 0,-6.07469 C 57.875702,356.80949 47.544595,352.92204 43.538656,345.8328 l 19.766148,-2.05568 c 1.84484,4.45418 7.906459,6.68106 18.184856,6.68106 4.823151,0 8.380846,-0.47439 10.647365,-1.43623 2.266518,-0.94878 3.399988,-2.10839 3.399988,-3.4527 -4.22e-4,-1.39702 -1.133892,-2.45122 -3.40041,-3.16259 z M 0,363.56941 c 0,-2.3985 0.47438754,-4.7308 1.2915992,-7.0104 13.7306728,16.20846 43.8279268,27.25093 79.6705418,27.25093 10.278397,0 20.003549,-1.00148 29.095769,-2.67512 -9.48775,5.75843 -17.578905,13.53333 -23.666667,22.78367 -1.818275,0.0531 -3.610406,0.13199 -5.429102,0.13199 C 36.238148,404.05048 0,385.91833 0,363.56941 Z m 161.92428,0 c 0,2.66205 -0.55324,5.27097 -1.55515,7.80104 -3.90052,-0.63252 -7.85375,-1.0542 -11.93896,-1.0542 -2.21381,0 -4.37491,0.14506 -6.53601,0.32933 7.72219,-4.01901 14.17892,-8.73674 18.73852,-14.08657 0.79065,2.2796 1.2916,4.61232 1.2916,7.0104 z m -50.2058,145.3865 C 102.23073,510.90617 91.84691,512 80.962141,512 36.238148,512 0,493.86785 0,471.51893 c 0,-2.3985 0.47438754,-4.7308 1.2915992,-7.01039 13.7306728,16.20803 43.8279268,27.25092 79.6705418,27.25092 3.399988,0 6.694135,-0.18469 9.962138,-0.38204 5.771926,7.06311 12.835031,13.01931 20.794201,17.57849 z M 0,444.53155 c 0,-2.3985 0.47438754,-4.7308 1.2915992,-7.01039 13.2301418,15.60207 41.6933938,26.31522 75.7704438,27.10587 2.029535,7.26087 5.139409,14.07349 9.171492,20.2536 -1.765987,0.0527 -3.505408,0.13157 -5.270973,0.13157 C 36.238148,485.01262 0,466.88047 0,444.53155 Z m 0,-26.98738 c 0,-2.3985 0.47438754,-4.7308 1.2915992,-7.01039 12.9138828,15.22003 40.3229408,25.76198 73.2665208,27.00045 -0.210839,2.30615 -0.342824,4.63845 -0.342824,6.99732 0,4.55918 0.474387,9.01336 1.265033,13.36213 C 33.339113,456.47009 0,438.97046 0,417.54417 Z m 0,-26.98738 c 0,-2.3985 0.47438754,-4.7308 1.2915992,-7.01039 13.7306728,16.20845 43.8279268,27.25092 79.6705418,27.25092 0.500953,0 0.975341,-0.0527 1.475872,-0.0527 -3.215293,6.25939 -5.587231,13.01931 -6.904974,20.16126 C 33.365257,429.49621 0,411.98308 0,390.55679 Z M 148.43059,377.0631 c -37.29234,0 -67.468449,30.22924 -67.468449,67.46845 0,37.27885 30.176109,67.46845 67.468449,67.46845 37.26578,0 67.46845,-30.1896 67.46845,-67.46845 0,-37.23921 -30.20267,-67.46845 -67.46845,-67.46845 z m 23.56125,100.82063 c -4.24292,4.77045 -10.41038,7.56406 -18.42226,8.40742 l 0,12.20251 -10.22569,0 0,-12.13589 c -13.36212,-1.37045 -21.63755,-9.15884 -24.82628,-23.33776 l 15.78677,-4.11136 c 1.47588,8.90795 6.32517,13.36213 14.57403,13.36213 3.82167,0 6.66799,-0.94877 8.48627,-2.8594 1.81827,-1.91062 2.74091,-4.2037 2.74091,-6.90497 0,-2.79362 -0.92264,-4.91508 -2.74091,-6.33824 -1.81828,-1.44973 -5.85078,-3.28107 -12.09709,-5.49488 -5.61338,-1.93719 -10.01485,-3.86046 -13.17744,-5.785 -3.16258,-1.89755 -5.71879,-4.55918 -7.72176,-7.98574 -1.95026,-3.4392 -2.95174,-7.44514 -2.95174,-11.99167 0,-5.98276 1.76598,-11.37223 5.29711,-16.15532 3.53155,-4.78351 9.06608,-7.69562 16.63013,-8.76289 l 0,-9.43588 10.22569,0 0,9.43504 c 11.43801,1.37045 18.84394,7.82718 22.19079,19.38411 l -14.07349,5.79807 c -2.74091,-7.9461 -6.98383,-11.89933 -12.75576,-11.89933 -2.87247,0 -5.19169,0.88299 -6.93154,2.66163 -1.76598,1.77948 -2.63548,3.91359 -2.63548,6.43059 0,2.58277 0.84335,4.54611 2.53006,5.93005 1.68671,1.37046 5.29712,3.07024 10.8055,5.09977 6.08818,2.21381 10.8582,4.30955 14.28433,6.28553 3.4527,1.96334 6.21975,4.70424 8.302,8.17001 2.02953,3.47884 3.08373,7.53749 3.08373,12.17595 0,7.14238 -2.13454,13.08508 -6.37788,17.85552 z"
           inkscape:connector-curvature="0" />
      </g>
      <g
         id="g4157" />
      <g
         id="g4159" />
      <g
         id="g4161" />
      <g
         id="g4163" />
      <g
         id="g4165" />
      <g
         id="g4167" />
      <g
         id="g4169" />
      <g
         id="g4171" />
      <g
         id="g4173" />
      <g
         id="g4175" />
      <g
         id="g4177" />
      <g
         id="g4179" />
      <g
         id="g4181" />
      <g
         id="g4183" />
      <g
         id="g4185" />
    </g>
  </g>
</svg>
