<?xml version="1.0" encoding="UTF-8" standalone="no"?>
<!-- Generator: Adobe Illustrator 18.0.0, SVG Export Plug-In . SVG Version: 6.00 Build 0)  -->

<svg
   xmlns:dc="http://purl.org/dc/elements/1.1/"
   xmlns:cc="http://creativecommons.org/ns#"
   xmlns:rdf="http://www.w3.org/1999/02/22-rdf-syntax-ns#"
   xmlns:svg="http://www.w3.org/2000/svg"
   xmlns="http://www.w3.org/2000/svg"
   xmlns:sodipodi="http://sodipodi.sourceforge.net/DTD/sodipodi-0.dtd"
   xmlns:inkscape="http://www.inkscape.org/namespaces/inkscape"
   version="1.1"
   id="Capa_1"
   x="0px"
   y="0px"
   viewBox="0 0 24 24"
   xml:space="preserve"
   sodipodi:docname="Funding.svg"
   width="24"
   height="24"
   inkscape:version="0.92.1 r15371"><metadata
     id="metadata42"><rdf:RDF><cc:Work
         rdf:about=""><dc:format>image/svg+xml</dc:format><dc:type
           rdf:resource="http://purl.org/dc/dcmitype/StillImage" /><dc:title></dc:title></cc:Work></rdf:RDF></metadata><defs
     id="defs40" /><sodipodi:namedview
     pagecolor="#ffffff"
     bordercolor="#666666"
     borderopacity="1"
     objecttolerance="10"
     gridtolerance="10"
     guidetolerance="10"
     inkscape:pageopacity="0"
     inkscape:pageshadow="2"
     inkscape:window-width="1920"
     inkscape:window-height="1027"
     id="namedview38"
     showgrid="false"
     inkscape:zoom="8.2058593"
     inkscape:cx="45.625715"
     inkscape:cy="6.6063905"
     inkscape:window-x="-8"
     inkscape:window-y="-8"
     inkscape:window-maximized="1"
     inkscape:current-layer="Capa_1" /><g
     id="XMLID_473_"
     transform="matrix(0.05215574,0,0,0.05219615,0,-0.18629099)"
     style="stroke-width:19.16592026"><circle
       id="XMLID_474_"
       cx="367.62"
       cy="37.937"
       r="37.758999"
       style="stroke-width:19.16592026" /><path
       id="XMLID_884_"
       d="m 459.928,218.503 c 0.057,-0.016 0.113,-0.035 0.17,-0.052 l -0.441,-87.715 c -0.12,-23.721 -19.516,-43.02 -43.237,-43.02 h -19.243 c -2.393,6.253 -19.566,52.464 -22.133,59.171 l 5.34,-25.155 c 0.375,-1.766 0.103,-3.609 -0.767,-5.191 l -7.333,-13.337 6.52,-11.554 c 0.452,-0.822 0.436,-1.822 -0.041,-2.63 -0.478,-0.808 -1.346,-1.303 -2.285,-1.303 h -17.893 c -0.938,0 -1.807,0.495 -2.285,1.303 -0.478,0.808 -0.493,1.807 -0.041,2.63 l 6.519,11.554 -7.36,13.387 c -0.854,1.552 -1.132,3.356 -0.787,5.094 l 4.669,25.203 c -1.423,-3.65 -21.349,-59.156 -21.349,-59.156 h -19.388 c -23.108,0 -42.1,18.366 -43.075,41.267 l -7.977,48.586 -28.111,35.004 0.438,0.401 c 12.232,11.193 14.36,29.292 5.895,42.872 4.127,-0.773 8.013,-2.945 10.849,-6.476 l 42.338,-52.718 c 1.965,-2.447 3.265,-5.36 3.773,-8.457 0,0 6.137,-43.8 9.193,-57.399 0.382,-1.698 1.979,-2.838 3.709,-2.645 1.73,0.193 3.036,1.656 3.036,3.396 l 0.071,306.492 c 0,12.109 9.816,21.925 21.925,21.925 11.488,0 20.906,-8.837 21.842,-20.083 0.119,-0.922 0.187,-1.86 0.187,-2.815 V 266.564 c 0.451,-2.144 2.351,-3.755 4.629,-3.755 2.614,0 4.733,2.119 4.733,4.733 v 170.514 c 0,12.109 9.816,21.925 21.925,21.925 12.109,0 21.925,-9.816 21.925,-21.925 v -37.345 c -0.015,-0.008 -0.03,-0.018 -0.046,-0.026 V 279.32 c 0.016,-0.008 0.03,-0.018 0.046,-0.026 0,-7.338 -0.018,-11.497 -0.046,-14.968 v -1.995 c 0,-0.38 -0.01,-0.757 -0.029,-1.131 -0.113,-11.021 -0.315,-23.047 -0.323,-130.204 0,-2.097 1.689,-3.803 3.786,-3.824 1.814,-0.018 3.344,1.233 3.751,2.929 0.026,0.235 0.042,0.472 0.043,0.714 l 0.672,133.849 c 0.05,10.031 8.197,18.128 18.217,18.128 0.03,0 0.063,0 0.094,0 10.062,-0.05 18.178,-8.248 18.127,-18.31 z"
       inkscape:connector-curvature="0"
       style="stroke-width:19.16592026" /><circle
       id="XMLID_885_"
       cx="96.721001"
       cy="37.937"
       r="37.758999"
       style="stroke-width:19.16592026" /><path
       id="XMLID_886_"
       d="m 188.873,187.573 c -0.113,-22.532 -0.029,-5.826 -0.286,-56.941 -0.118,-23.655 -19.459,-42.899 -43.114,-42.899 -10.124,0 -87.65,0 -97.81,0 -23.654,0 -42.995,19.244 -43.115,42.899 L 3.875,264.48 c -0.032,6.439 3.308,12.16 8.421,15.433 v 15.15 H 7.529 C 3.371,295.063 0,298.434 0,302.592 v 74.274 c 0,4.158 3.371,7.529 7.529,7.529 h 28.323 c 4.158,0 7.529,-3.371 7.529,-7.529 v -74.274 c 0,-4.158 -3.371,-7.529 -7.529,-7.529 H 31 v -14.607 c 5.503,-3.091 9.28,-9.008 9.313,-15.793 l 0.672,-133.848 v -0.002 c 0.01,-1.939 1.588,-3.505 3.528,-3.499 1.939,0.005 3.508,1.579 3.508,3.519 l 0.008,151.779 c 6.729,4.116 11.229,11.532 11.229,19.981 v 74.274 c 0,8.449 -4.5,15.865 -11.229,19.981 v 41.271 c 0,12.075 9.789,21.863 21.863,21.863 12.074,0 21.863,-9.788 21.863,-21.863 0,-0.795 0.012,-143.122 -0.016,-171.063 -0.001,-1.253 0.495,-2.454 1.381,-3.341 0.886,-0.887 2.087,-1.384 3.339,-1.384 h 0.037 c 1.251,0 2.45,0.497 3.334,1.382 0.884,0.885 1.38,2.085 1.379,3.336 -0.028,27.924 -0.016,170.275 -0.016,171.07 0,12.075 9.789,21.863 21.863,21.863 12.074,0 21.863,-9.788 21.863,-21.863 l -0.388,-307.308 c -0.003,-2.103 1.7,-3.81 3.803,-3.813 2.103,-0.003 3.811,1.699 3.814,3.802 0,0.005 0,0.009 0,0.014 0.032,6.422 0.293,58.406 0.326,64.912 0.025,5.081 2.172,9.92 5.92,13.35 l 46.279,42.345 c 7.42,6.79 18.944,6.284 25.74,-1.143 6.793,-7.424 6.281,-18.948 -1.143,-25.74 z"
       inkscape:connector-curvature="0"
       style="stroke-width:19.16592026" /></g><g
     id="g7"
     transform="translate(0,-436.159)" /><g
     id="g9"
     transform="translate(0,-436.159)" /><g
     id="g11"
     transform="translate(0,-436.159)" /><g
     id="g13"
     transform="translate(0,-436.159)" /><g
     id="g15"
     transform="translate(0,-436.159)" /><g
     id="g17"
     transform="translate(0,-436.159)" /><g
     id="g19"
     transform="translate(0,-436.159)" /><g
     id="g21"
     transform="translate(0,-436.159)" /><g
     id="g23"
     transform="translate(0,-436.159)" /><g
     id="g25"
     transform="translate(0,-436.159)" /><g
     id="g27"
     transform="translate(0,-436.159)" /><g
     id="g29"
     transform="translate(0,-436.159)" /><g
     id="g31"
     transform="translate(0,-436.159)" /><g
     id="g33"
     transform="translate(0,-436.159)" /><g
     id="g35"
     transform="translate(0,-436.159)" /></svg>