<?xml version="1.0" encoding="UTF-8" standalone="no"?>
<svg
   xmlns:dc="http://purl.org/dc/elements/1.1/"
   xmlns:cc="http://creativecommons.org/ns#"
   xmlns:rdf="http://www.w3.org/1999/02/22-rdf-syntax-ns#"
   xmlns:svg="http://www.w3.org/2000/svg"
   xmlns="http://www.w3.org/2000/svg"
   xmlns:sodipodi="http://sodipodi.sourceforge.net/DTD/sodipodi-0.dtd"
   xmlns:inkscape="http://www.inkscape.org/namespaces/inkscape"
   viewBox="0 0 24 24"
   enable-background="new 0 0 26 26"
   version="1.1"
   id="svg4"
   sodipodi:docname="Interest.svg"
   width="24"
   height="24"
   inkscape:version="0.92.1 r15371">
  <metadata
     id="metadata10">
    <rdf:RDF>
      <cc:Work
         rdf:about="">
        <dc:format>image/svg+xml</dc:format>
        <dc:type
           rdf:resource="http://purl.org/dc/dcmitype/StillImage" />
        <dc:title></dc:title>
      </cc:Work>
    </rdf:RDF>
  </metadata>
  <defs
     id="defs8" />
  <sodipodi:namedview
     pagecolor="#ffffff"
     bordercolor="#666666"
     borderopacity="1"
     objecttolerance="10"
     gridtolerance="10"
     guidetolerance="10"
     inkscape:pageopacity="0"
     inkscape:pageshadow="2"
     inkscape:window-width="1920"
     inkscape:window-height="1013"
     id="namedview6"
     showgrid="false"
     inkscape:zoom="9.0769231"
     inkscape:cx="13"
     inkscape:cy="13"
     inkscape:window-x="-9"
     inkscape:window-y="-9"
     inkscape:window-maximized="1"
     inkscape:current-layer="svg4" />
  <path
     d="m 4.6153846,0.0184108 c -1.5294039,0 -2.7692308,1.2389496 -2.7692308,2.7672713 0,1.5283216 1.2398269,2.7672712 2.7692308,2.7672712 1.5294039,0 2.7692308,-1.2389496 2.7692308,-2.7672712 0,-1.5283217 -1.2398269,-2.7672713 -2.7692308,-2.7672713 z M 2.3076923,6.475377 C 1.0153846,6.475377 0,7.4900432 0,8.7814364 v 6.9181786 c 0,0.553454 0.36923077,0.922423 0.92307692,0.922423 0.55384618,0 0.92307688,-0.368969 0.92307688,-0.922423 v 0.922423 6.456967 c 0,0.553454 0.3692308,0.922423 0.923077,0.922423 h 0.9230769 c 0.5538461,0 0.9230769,-0.368969 0.9230769,-0.922423 v -5.534543 h 0.7211538 l 1.125,5.707497 c 0.092308,0.553454 0.6346154,0.841712 1.0961539,0.749469 l 0.9230769,-0.172954 c 0.5538462,-0.09224 0.8423077,-0.662992 0.75,-1.124204 L 8.0480769,16.593213 c 0.083385,0.02088 0.164373,0.02883 0.2596154,0.02883 0.5538461,0 0.9230769,-0.368969 0.9230769,-0.922423 V 8.7814364 c 0,-1.2913932 -1.0153846,-2.3060594 -2.3076923,-2.3060594 z m 16.1538457,6.456966 c -2.74514,0 -5.025088,2.013366 -5.451923,4.640945 -0.552108,0.07424 -0.984677,0.306067 -1.26923,0.634166 -0.346965,0.400061 -0.505633,0.863615 -0.634616,1.297159 -0.128982,0.433543 -0.245374,0.833276 -0.432692,1.124203 -0.187318,0.290928 -0.397397,0.490768 -0.8942309,0.605341 l 0.2019231,0.922424 C 10.683935,21.994427 11.160395,21.600456 11.451923,21.14768 11.743451,20.694904 11.875136,20.183742 12,19.764044 c 0.124864,-0.419698 0.254657,-0.745969 0.432692,-0.951249 0.113629,-0.131017 0.266634,-0.229664 0.490385,-0.288258 0.03081,3.018089 2.511299,5.476891 5.538461,5.476891 C 21.507692,24.001428 24,21.510884 24,18.466886 24,15.422887 21.507692,12.932343 18.461538,12.932343 Z M 18,14.777191 h 0.923077 v 0.835946 c 0.646154,0 1.015384,0.16719 1.384615,0.259432 l -0.288461,1.037727 C 19.834615,16.818053 19.396154,16.622038 18.75,16.622038 c -0.553846,0 -0.836539,0.270962 -0.836539,0.547689 0,0.276728 0.265385,0.472743 1.096154,0.74947 1.107693,0.368969 1.586539,0.928189 1.586539,1.75837 -0.09231,0.737939 -0.657693,1.464348 -1.673077,1.55659 v 0.922424 H 18 v -0.835947 c -0.646154,0 -1.188462,-0.19025 -1.557692,-0.374734 l 0.259615,-1.095379 c 0.369231,0.184485 0.917308,0.374735 1.471154,0.374735 0.553846,0 0.923077,-0.17872 0.923077,-0.547689 0,-0.36897 -0.271154,-0.559219 -1.009616,-0.835947 -1.015384,-0.368969 -1.64423,-0.841711 -1.64423,-1.671893 0,-0.830181 0.542307,-1.458582 1.557692,-1.643067 z"
     id="path2"
     inkscape:connector-curvature="0"
     style="stroke-width:1" />
</svg>
