<?xml version="1.0" encoding="utf-8"?>
<!-- Svg Vector Icons : http://www.onlinewebfonts.com/icon -->
<!DOCTYPE svg PUBLIC "-//W3C//DTD SVG 1.1//EN" "http://www.w3.org/Graphics/SVG/1.1/DTD/svg11.dtd">
<svg version="1.1" xmlns="http://www.w3.org/2000/svg" xmlns:xlink="http://www.w3.org/1999/xlink" x="0px" y="0px" viewBox="0 0 1000 1000" enable-background="new 0 0 1000 1000" xml:space="preserve">
<metadata> Svg Vector Icons : http://www.onlinewebfonts.com/icon </metadata>
<g><path d="M247.2,120.7c0,69.8-56.6,126.5-126.5,126.5c-18.3,0-35.6-4-51.4-11.1C43.1,278.7,22.7,325.3,10,375.2C72.3,383,120.7,435.6,120.7,500c0,64.2-48.1,116.8-110.2,124.8c12.6,49.7,32.7,96.5,58.8,139.1c15.8-7,33.1-11.1,51.4-11.1c69.8,0,126.5,56.6,126.5,126.4c0,18.4-4.2,35.6-11.1,51.4c42.6,26.2,89.4,46.1,139.1,58.8c8-62.1,60.6-110.2,124.8-110.2s116.8,48.2,124.8,110.2c49.7-12.6,96.5-32.7,139.1-58.8c-7-15.7-11.1-33-11.1-51.4c0-69.8,56.6-126.4,126.4-126.4c18.4,0,35.7,4.1,51.4,11.1c26.2-42.7,46.1-89.4,58.8-139.1c-62.1-8-110.2-60.6-110.2-124.8c0-64.4,48.4-117,110.7-124.8c-12.8-49.9-33-96.5-59.3-139.1c-15.8,7.1-33.1,11.1-51.5,11.1c-69.8,0-126.4-56.6-126.4-126.5c0-18.1,4-35.5,11-51.1c-42.7-26.2-89.3-46.5-139-59.1c-8,62.1-60.6,110.2-124.8,110.2S383.2,72.6,375.2,10.5c-49.7,12.6-96.3,32.9-139,59.1C243.1,85.3,247.2,102.6,247.2,120.7L247.2,120.7z M500,310.4c104.7,0,189.6,84.9,189.6,189.6c0,104.7-85,189.6-189.6,189.6c-104.7,0-189.6-85-189.6-189.6C310.4,395.4,395.3,310.4,500,310.4L500,310.4z"/></g>
</svg>