<?xml version="1.0"?>
<svg xmlns="http://www.w3.org/2000/svg" viewBox="0 0 50 50">
    <path d="M 8 3 C 5.243 3 3 5.243 3 8 L 3 41 C 3 43.757 5.243 46 8 46 L 42 46 C 44.757 46 47 43.757 47 41 L 47 8 C 47 5.243 44.757 3 42 3 L 8 3 z M 24 10.046875 L 24 14 L 26 14 L 26 10.046875 C 28.350668 10.157949 30.651416 10.636259 32.824219 11.496094 L 31.582031 14.492188 L 33.431641 15.257812 L 34.650391 12.316406 C 36.438171 13.222494 38.119586 14.383657 39.650391 15.78125 L 34.753906 22 L 26 22 L 28 14 L 22 22 L 15.246094 22 L 10.349609 15.78125 C 11.880788 14.383657 13.561682 13.222494 15.349609 12.316406 L 16.568359 15.259766 L 18.417969 14.494141 L 17.175781 11.496094 C 19.348694 10.636259 21.649331 10.157949 24 10.046875 z"/>
</svg>
