<?xml version="1.0"?>
<svg xmlns="http://www.w3.org/2000/svg" viewBox="0 0 24 24" enable-background="new 0 0 24 24">
    <path d="M 16 2 L 15.125 9 L 14 9 L 14 5 L 4 5 L 4 9 L 2 9 L 2 20 C 2 21.1 2.9 22 4 22 L 9 22 C 9 19 7 19 7 15 L 5 15 L 8 11 L 11 15 L 9 15 C 9 18 11 18.1 11 22 L 17 22 C 17 19 15 19 15 15 L 13 15 L 16 11 L 19 15 L 17 15 C 17 19 19 19 19 22 L 20 22 C 21.1 22 22 21.1 22 20 L 22 9 L 19.875 9 L 19 2 L 16 2 z M 6 7 L 8 7 L 8 9 L 6 9 L 6 7 z M 10 7 L 12 7 L 12 9 L 10 9 L 10 7 z"/>
</svg>
