<?xml version="1.0" encoding="iso-8859-1"?>
<!-- Generator: Adobe Illustrator 18.0.0, SVG Export Plug-In . SVG Version: 6.00 Build 0)  -->
<!DOCTYPE svg PUBLIC "-//W3C//DTD SVG 1.1//EN" "http://www.w3.org/Graphics/SVG/1.1/DTD/svg11.dtd">
<svg version="1.1" id="Capa_1" xmlns="http://www.w3.org/2000/svg" xmlns:xlink="http://www.w3.org/1999/xlink" x="0px" y="0px"
	 viewBox="0 0 496.461 496.461" style="enable-background:new 0 0 496.461 496.461;" xml:space="preserve">
<g>
	<path d="M434.891,406.41L318.208,252.941V65.661c14.392-3.727,25.064-16.685,25.064-32.238C343.272,14.962,328.309,0,309.849,0
		H186.605c-18.456,0-33.422,14.962-33.422,33.423c0,15.552,10.676,28.51,25.067,32.238v187.28L61.567,406.41
		c-12.989,17.086-15.129,39.638-5.598,58.887c9.547,19.225,28.804,31.165,50.263,31.165h283.99c21.463,0,40.72-11.94,50.283-31.18
		C450.02,446.048,447.88,423.496,434.891,406.41z M410.556,450.43c-3.866,7.776-11.65,12.609-20.334,12.609h-283.99
		c-8.68,0-16.464-4.833-20.318-12.589c-3.866-7.789-2.982-16.9,2.254-23.804l120.095-157.954c2.219-2.916,3.411-6.465,3.411-10.121
		V66.845h73.111V258.57c0,3.656,1.19,7.205,3.411,10.121l120.095,157.954C413.528,433.55,414.411,442.661,410.556,450.43z"/>
	<path d="M331.375,352.468H165.047l-56.854,74.784c-2.595,3.418-3.038,8.018-1.129,11.873c1.909,3.851,5.843,6.29,10.137,6.29
		h262.025c4.289,0,8.224-2.44,10.133-6.29c1.909-3.854,1.47-8.454-1.125-11.873L331.375,352.468z"/>
</g>
<g>
</g>
<g>
</g>
<g>
</g>
<g>
</g>
<g>
</g>
<g>
</g>
<g>
</g>
<g>
</g>
<g>
</g>
<g>
</g>
<g>
</g>
<g>
</g>
<g>
</g>
<g>
</g>
<g>
</g>
</svg>
