<?xml version="1.0"?>
<svg xmlns="http://www.w3.org/2000/svg" version="1" viewBox="0 0 26 26" enable-background="new 0 0 26 26">
    <path d="M 3 0 C 1.3 0 0 1.3 0 3 L 0 18 C 0 19.7 1.3 21 3 21 L 9 21 L 9 23 L 17 23 L 17 21 L 23 21 C 24.7 21 26 19.7 26 18 L 26 3 C 26 1.3 24.7 0 23 0 L 3 0 z M 3 2 L 23 2 C 23.6 2 24 2.4 24 3 L 24 16 C 24 16.6 23.6 17 23 17 L 3 17 C 2.4 17 2 16.6 2 16 L 2 3 C 2 2.4 2.4 2 3 2 z M 11.3125 4 C 10.0125 4 9.5 6.70625 9 8.40625 C 7.6 8.60625 6 9.5125 6 9.8125 C 6 10.4125 9.2 11 13 11 C 16.8 11 20 10.5125 20 9.8125 C 20 9.5125 18.4 8.60625 17 8.40625 C 16.6 6.60625 15.9875 4 14.6875 4 C 13.9875 4 13.7 5 13 5 C 12.3 5 12.0125 4 11.3125 4 z M 8.6875 11.5 C 8.6875 11.5 8.8875 15 10.1875 15 C 11.6875 15 12.2 13.90625 13 13.90625 C 13.8 13.90625 14.5125 15 15.8125 15 C 17.0125 15 17.40625 11.5 17.40625 11.5 C 17.40625 11.5 15.30625 11.8125 12.90625 11.8125 C 10.50625 11.8125 8.6875 11.5 8.6875 11.5 z M 9.90625 12.59375 C 10.70625 12.69375 11.90625 12.9875 11.90625 13.1875 C 11.90625 13.3875 11.5 13.7125 11 13.8125 C 10 14.0125 9.90625 12.79375 9.90625 12.59375 z M 15.8125 12.59375 C 15.9125 12.79375 15.6875 14.0125 14.6875 13.8125 C 14.1875 13.7125 13.8125 13.3875 13.8125 13.1875 C 13.8125 12.9875 15.0125 12.69375 15.8125 12.59375 z M 23 18 C 23.6 18 24 18.5 24 19 C 24 19.6 23.6 20 23 20 C 22.4 20 22 19.5 22 19 C 22 18.4 22.5 18 23 18 z M 6.59375 24 C 5.69375 24 5 24.69375 5 25.59375 L 5 26 L 21 26 L 21 25.59375 C 21 24.69375 20.30625 24 19.40625 24 L 6.59375 24 z"/>
</svg>
