<?xml version="1.0" encoding="UTF-8" standalone="no"?>
<!-- Generator: Adobe Illustrator 16.0.0, SVG Export Plug-In . SVG Version: 6.00 Build 0)  -->

<svg
   xmlns:dc="http://purl.org/dc/elements/1.1/"
   xmlns:cc="http://creativecommons.org/ns#"
   xmlns:rdf="http://www.w3.org/1999/02/22-rdf-syntax-ns#"
   xmlns:svg="http://www.w3.org/2000/svg"
   xmlns="http://www.w3.org/2000/svg"
   xmlns:sodipodi="http://sodipodi.sourceforge.net/DTD/sodipodi-0.dtd"
   xmlns:inkscape="http://www.inkscape.org/namespaces/inkscape"
   version="1.1"
   id="Capa_1"
   x="0px"
   y="0px"
   width="24"
   height="24"
   viewBox="0 0 24 24"
   xml:space="preserve"
   sodipodi:docname="ConstructionSite.svg"
   inkscape:version="0.92.1 r15371"><metadata
     id="metadata46"><rdf:RDF><cc:Work
         rdf:about=""><dc:format>image/svg+xml</dc:format><dc:type
           rdf:resource="http://purl.org/dc/dcmitype/StillImage" /><dc:title></dc:title></cc:Work></rdf:RDF></metadata><defs
     id="defs44" /><sodipodi:namedview
     pagecolor="#ffffff"
     bordercolor="#666666"
     borderopacity="1"
     objecttolerance="10"
     gridtolerance="10"
     guidetolerance="10"
     inkscape:pageopacity="0"
     inkscape:pageshadow="2"
     inkscape:window-width="1920"
     inkscape:window-height="1013"
     id="namedview42"
     showgrid="false"
     inkscape:zoom="15.749345"
     inkscape:cx="11.227902"
     inkscape:cy="12.498"
     inkscape:window-x="-9"
     inkscape:window-y="-9"
     inkscape:window-maximized="1"
     inkscape:current-layer="Capa_1" /><g
     id="g9"
     transform="matrix(0.04915619,0,0,0.04915619,0.18978835,0.3020386)"
     style="stroke-width:20.34331894"><g
       id="iconos_42_"
       style="stroke-width:20.34331894"><path
         d="m 474.037,438.871 v -31.078 c 0,-21.124 -12.346,-33.469 -33.469,-33.469 H 230.193 c -28.391,0 -43.031,13.445 -43.031,33.469 v 40.344 c 0,20.914 14.047,31.375 43.031,31.375 h 210.375 c 21.123,0 33.469,-14.047 33.469,-40.641 z m -38.25,2.391 H 225.412 v -28.688 h 210.375 z"
         id="path2"
         inkscape:connector-curvature="0"
         style="stroke-width:20.34331894" /><path
         d="m 311.475,154.387 v 9.562 81.96 0 0.01 l 12.183,32.78 H 303.156 L 103.127,0 59.053,26.584 72.412,50.002 V 173.511 H 58.298 l 9.486,66.938 h 4.15 0.478 v 20.225 c -8.606,3.911 -18.169,12.307 -18.169,27.387 0,10.127 3.95,17.519 9.725,22.453 L 12.111,355.2 h 14.65 L 72.69,315.621 c 4.16,1.626 8.606,2.524 13.005,2.524 4.418,0 8.807,-1.176 12.766,-3.309 l 49.792,40.363 h 14.927 l 0.105,-0.134 -57.279,-46.426 c 3.882,-4.677 6.455,-10.949 6.455,-18.973 0,-5.288 -4.284,-9.562 -9.562,-9.562 -5.279,0 -9.562,4.274 -9.562,9.562 0,3.434 -0.928,5.585 -2.142,6.972 l -2.62,-2.123 c -1.788,-1.444 -4.38,-1.425 -6.129,0.096 L 78.86,297.7 c -3.099,-1.435 -5.489,-4.246 -5.489,-9.63 0,-8.645 8.578,-10.738 10.194,-11.045 4.609,-0.793 7.975,-4.771 7.975,-9.438 v -27.139 h 6.694 3.92 l 13.378,-66.938 h -9.648 -4.784 v -69.405 l 114.75,220.846 v 1.521 2.878 6.723 h 38.25 v 19.125 h 133.875 9.562 v -19.125 h 47.812 9.562 V 154.387 Z m -82.716,49.725 0.115,0.163 -39.015,25.389 20.062,-51.466 z M 91.537,173.512 H 86.756 81.975 V 68.037 l 9.562,18.035 z M 99.856,76.032 83.352,44.686 109.085,27.77 Z m 22.377,-28.736 18.341,31.824 -29.605,19.068 z m 2.935,69.175 27.894,-18.14 -10.92,49.677 z m 39.685,-1.931 20.569,29.997 -30.925,19.804 z m -3.175,72.656 34.559,-23.677 -19.68,52.708 z m 51.15,90.929 -16.667,-29.414 41.376,-29.548 z m 12.985,20.895 28.286,-60.961 23.008,31.375 z m 190.849,-49.008 h -66.938 v -57.375 h 66.938 z"
         id="path4"
         inkscape:connector-curvature="0"
         style="stroke-width:20.34331894" /><polygon
         points="15.037,412.574 5.475,412.574 5.475,431.699 158.475,431.699 158.475,412.574 139.35,412.574 139.35,393.449 139.35,383.887 158.475,383.887 158.475,364.762 5.475,364.762 5.475,383.887 24.6,383.887 24.6,412.574 "
         id="polygon6"
         style="stroke-width:20.34331894" /></g></g><g
     id="g11"
     transform="translate(0,-455.51199)" /><g
     id="g13"
     transform="translate(0,-455.51199)" /><g
     id="g15"
     transform="translate(0,-455.51199)" /><g
     id="g17"
     transform="translate(0,-455.51199)" /><g
     id="g19"
     transform="translate(0,-455.51199)" /><g
     id="g21"
     transform="translate(0,-455.51199)" /><g
     id="g23"
     transform="translate(0,-455.51199)" /><g
     id="g25"
     transform="translate(0,-455.51199)" /><g
     id="g27"
     transform="translate(0,-455.51199)" /><g
     id="g29"
     transform="translate(0,-455.51199)" /><g
     id="g31"
     transform="translate(0,-455.51199)" /><g
     id="g33"
     transform="translate(0,-455.51199)" /><g
     id="g35"
     transform="translate(0,-455.51199)" /><g
     id="g37"
     transform="translate(0,-455.51199)" /><g
     id="g39"
     transform="translate(0,-455.51199)" /></svg>