<?xml version="1.0" encoding="UTF-8" standalone="no"?>
<!-- Generator: Adobe Illustrator 18.0.0, SVG Export Plug-In . SVG Version: 6.00 Build 0)  -->

<svg
   xmlns:dc="http://purl.org/dc/elements/1.1/"
   xmlns:cc="http://creativecommons.org/ns#"
   xmlns:rdf="http://www.w3.org/1999/02/22-rdf-syntax-ns#"
   xmlns:svg="http://www.w3.org/2000/svg"
   xmlns="http://www.w3.org/2000/svg"
   xmlns:sodipodi="http://sodipodi.sourceforge.net/DTD/sodipodi-0.dtd"
   xmlns:inkscape="http://www.inkscape.org/namespaces/inkscape"
   version="1.1"
   id="Capa_1"
   x="0px"
   y="0px"
   viewBox="0 0 23.999999 23.999999"
   xml:space="preserve"
   sodipodi:docname="FossilPowerPlant.svg"
   width="24"
   height="24"
   inkscape:version="0.92.1 r15371"><metadata
     id="metadata49"><rdf:RDF><cc:Work
         rdf:about=""><dc:format>image/svg+xml</dc:format><dc:type
           rdf:resource="http://purl.org/dc/dcmitype/StillImage" /><dc:title></dc:title></cc:Work></rdf:RDF></metadata><defs
     id="defs47" /><sodipodi:namedview
     pagecolor="#ffffff"
     bordercolor="#666666"
     borderopacity="1"
     objecttolerance="10"
     gridtolerance="10"
     guidetolerance="10"
     inkscape:pageopacity="0"
     inkscape:pageshadow="2"
     inkscape:window-width="1920"
     inkscape:window-height="1013"
     id="namedview45"
     showgrid="false"
     inkscape:zoom="17.465136"
     inkscape:cx="10.29009"
     inkscape:cy="14.013595"
     inkscape:window-x="-9"
     inkscape:window-y="-9"
     inkscape:window-maximized="1"
     inkscape:current-layer="Capa_1" /><g
     id="g12"
     transform="matrix(0.07839843,0,0,0.07839843,0.0362152,0.02928804)"
     style="stroke-width:12.75535774"><path
       d="m 303.297,75.612 c 0,-0.057 -0.004,-0.112 -0.005,-0.169 -0.123,-7.849 -6.52,-14.174 -14.397,-14.174 -2.777,0 -5.37,0.788 -7.571,2.149 -1.306,-1.326 -3.12,-2.149 -5.129,-2.149 -3.697,0 -6.74,2.787 -7.15,6.375 -1.499,-0.353 -3.102,-0.547 -4.773,-0.547 -2.272,0 -4.427,0.352 -6.363,0.981 -1.755,-2.795 -4.856,-4.659 -8.399,-4.659 -5.267,0 -9.563,4.106 -9.89,9.291 -6.28,2.46 -10.73,8.569 -10.73,15.722 0,9.326 7.559,16.885 16.884,16.885 3.537,0 6.817,-1.089 9.529,-2.947 0.641,-0.171 1.262,-0.369 1.867,-0.59 1.254,0.297 2.559,0.459 3.904,0.459 2.494,0 4.859,-0.545 6.99,-1.516 3.193,3.52 7.803,5.729 12.929,5.729 9.638,0 17.451,-7.813 17.451,-17.452 0,-0.816 -0.06,-1.618 -0.169,-2.405 3.073,-2.641 5.023,-6.554 5.023,-10.924 0,-0.014 0,-0.026 0,-0.04 -10e-4,-0.006 -10e-4,-0.013 -10e-4,-0.019 z"
       id="path2"
       inkscape:connector-curvature="0"
       style="stroke-width:12.75535774" /><path
       d="m 270.253,159.914 v -39.816 c 0,-6.19 -5.017,-11.207 -11.206,-11.207 h -30.158 v 43.276 l 36.019,93.711 h 22.075 c 3.693,0 7.147,-1.816 9.237,-4.862 2.091,-3.045 2.549,-6.921 1.225,-10.365 z"
       id="path4"
       inkscape:connector-curvature="0"
       style="stroke-width:12.75535774" /><path
       d="M 213.6,155.003 V 89.338 c 0,-6.191 -5.017,-11.207 -11.207,-11.207 h -49.794 c -6.19,0 -11.207,5.016 -11.207,11.207 v 65.689 l -6.778,17.637 v 0.737 l 42.718,111.119 h 69.741 c 3.692,0 7.146,-1.816 9.236,-4.861 2.09,-3.046 2.548,-6.923 1.224,-10.366 z"
       id="path6"
       inkscape:connector-curvature="0"
       style="stroke-width:12.75535774" /><path
       d="m 119.326,176.237 v -65.665 c 0,-6.19 -5.017,-11.207 -11.207,-11.207 H 58.325 c -6.19,0 -11.207,5.017 -11.207,11.207 v 65.69 L 3.205,290.527 c -1.324,3.444 -0.866,7.326 1.225,10.365 2.09,3.047 5.543,4.863 9.235,4.863 h 139.133 c 3.692,0 7.146,-1.816 9.237,-4.863 2.09,-3.045 2.548,-6.921 1.224,-10.365 z"
       id="path8"
       inkscape:connector-curvature="0"
       style="stroke-width:12.75535774" /><path
       d="m 40.489,87.268 c 10.897,0 20.244,-5.624 25.031,-13.78 5.285,2.862 11.874,4.644 19.13,4.644 15.219,0 27.818,-7.52 30.446,-17.423 4.1,1.995 8.977,3.181 14.232,3.181 5.076,0 9.774,-1.126 13.784,-2.991 4.938,6.28 13.428,10.445 23.111,10.445 11.625,0 21.528,-5.997 25.62,-14.461 4.966,-0.051 9.515,-1.808 13.216,-4.673 2.42,5.39 8.779,9.261 16.334,9.261 9.614,0 17.408,-6.25 17.408,-13.964 0,-1.056 -0.17,-2.076 -0.449,-3.065 7.794,-0.335 13.984,-5.056 13.984,-10.894 0,-5.923 -6.37,-10.715 -14.323,-10.919 0.459,-1.538 0.788,-3.119 0.788,-4.792 0,-9.849 -8.561,-17.836 -19.11,-17.836 -8.6,0 -15.795,5.345 -18.194,12.64 -2.985,-1.518 -6.31,-2.448 -9.863,-2.448 -9.754,0 -17.976,6.46 -21.11,15.447 -1.403,-0.188 -2.827,-0.362 -4.3,-0.362 -6.837,0 -13.009,2.144 -17.836,5.568 -4.786,-3.803 -11.525,-6.206 -19.06,-6.206 -1.215,0 -2.368,0.149 -3.533,0.264 C 125.547,13.71 114.36,4.688 100.554,4.688 93.338,4.688 86.869,7.175 82.261,11.122 76.897,4.398 68.606,0 59.171,0 42.987,0 29.869,12.74 29.869,28.45 c 0,3.051 0.627,5.932 1.543,8.686 -11.237,3.452 -19.379,12.982 -19.379,24.334 0,14.247 12.74,25.798 28.456,25.798 z m 173.56,-52.477 c 0.04,0.01 0.09,0.024 0.14,0.04 -0.05,0.014 -0.1,0.044 -0.149,0.063 -0.001,-0.034 0.009,-0.069 0.009,-0.103 z"
       id="path10"
       inkscape:connector-curvature="0"
       style="stroke-width:12.75535774" /></g><g
     id="g14"
     transform="matrix(0.07839843,0,0,0.07839843,0.0362152,0.02928804)"
     style="stroke-width:12.75535774" /><g
     id="g16"
     transform="matrix(0.07839843,0,0,0.07839843,0.0362152,0.02928804)"
     style="stroke-width:12.75535774" /><g
     id="g18"
     transform="matrix(0.07839843,0,0,0.07839843,0.0362152,0.02928804)"
     style="stroke-width:12.75535774" /><g
     id="g20"
     transform="matrix(0.07839843,0,0,0.07839843,0.0362152,0.02928804)"
     style="stroke-width:12.75535774" /><g
     id="g22"
     transform="matrix(0.07839843,0,0,0.07839843,0.0362152,0.02928804)"
     style="stroke-width:12.75535774" /><g
     id="g24"
     transform="matrix(0.07839843,0,0,0.07839843,0.0362152,0.02928804)"
     style="stroke-width:12.75535774" /><g
     id="g26"
     transform="matrix(0.07839843,0,0,0.07839843,0.0362152,0.02928804)"
     style="stroke-width:12.75535774" /><g
     id="g28"
     transform="matrix(0.07839843,0,0,0.07839843,0.0362152,0.02928804)"
     style="stroke-width:12.75535774" /><g
     id="g30"
     transform="matrix(0.07839843,0,0,0.07839843,0.0362152,0.02928804)"
     style="stroke-width:12.75535774" /><g
     id="g32"
     transform="matrix(0.07839843,0,0,0.07839843,0.0362152,0.02928804)"
     style="stroke-width:12.75535774" /><g
     id="g34"
     transform="matrix(0.07839843,0,0,0.07839843,0.0362152,0.02928804)"
     style="stroke-width:12.75535774" /><g
     id="g36"
     transform="matrix(0.07839843,0,0,0.07839843,0.0362152,0.02928804)"
     style="stroke-width:12.75535774" /><g
     id="g38"
     transform="matrix(0.07839843,0,0,0.07839843,0.0362152,0.02928804)"
     style="stroke-width:12.75535774" /><g
     id="g40"
     transform="matrix(0.07839843,0,0,0.07839843,0.0362152,0.02928804)"
     style="stroke-width:12.75535774" /><g
     id="g42"
     transform="matrix(0.07839843,0,0,0.07839843,0.0362152,0.02928804)"
     style="stroke-width:12.75535774" /></svg>