<?xml version="1.0" encoding="UTF-8" standalone="no"?>
<svg
   xmlns:dc="http://purl.org/dc/elements/1.1/"
   xmlns:cc="http://creativecommons.org/ns#"
   xmlns:rdf="http://www.w3.org/1999/02/22-rdf-syntax-ns#"
   xmlns:svg="http://www.w3.org/2000/svg"
   xmlns="http://www.w3.org/2000/svg"
   xmlns:sodipodi="http://sodipodi.sourceforge.net/DTD/sodipodi-0.dtd"
   xmlns:inkscape="http://www.inkscape.org/namespaces/inkscape"
   viewBox="0 0 24 24"
   version="1.1"
   id="svg4"
   sodipodi:docname="Furnace.svg"
   width="24"
   height="24"
   inkscape:version="0.92.1 r15371">
  <metadata
     id="metadata10">
    <rdf:RDF>
      <cc:Work
         rdf:about="">
        <dc:format>image/svg+xml</dc:format>
        <dc:type
           rdf:resource="http://purl.org/dc/dcmitype/StillImage" />
        <dc:title></dc:title>
      </cc:Work>
    </rdf:RDF>
  </metadata>
  <defs
     id="defs8" />
  <sodipodi:namedview
     pagecolor="#ffffff"
     bordercolor="#666666"
     borderopacity="1"
     objecttolerance="10"
     gridtolerance="10"
     guidetolerance="10"
     inkscape:pageopacity="0"
     inkscape:pageshadow="2"
     inkscape:window-width="1920"
     inkscape:window-height="1013"
     id="namedview6"
     showgrid="false"
     inkscape:zoom="18.88"
     inkscape:cx="16.451764"
     inkscape:cy="10.637856"
     inkscape:window-x="-9"
     inkscape:window-y="-9"
     inkscape:window-maximized="1"
     inkscape:current-layer="svg4" />
  <path
     d="m 2.9990147,0.67584684 c -1.4597322,0 -2.64731981,1.18758776 -2.64731981,2.64731976 V 20.795477 c 0,1.459732 1.18758761,2.647319 2.64731981,2.647319 H 21.000789 c 1.459732,0 2.64732,-1.187587 2.64732,-2.647319 V 3.3231666 c 0,-1.459732 -1.187588,-2.64731976 -2.64732,-2.64731976 z M 11.470438,4.4069137 v 2.093037 h 1.058928 v -2.093037 c 1.244594,0.058809 2.462757,0.3120574 3.613178,0.767309 l -0.657694,1.586324 0.979302,0.4053697 0.645285,-1.5573682 c 0.946565,0.4797405 1.836813,1.0945344 2.647319,1.8345099 L 17.164244,10.735661 H 12.529366 L 13.588294,6.4999507 10.41151,10.735661 H 6.8355603 L 4.243048,7.4430581 C 5.053752,6.7030826 5.9437247,6.0882887 6.8903677,5.6085482 L 7.5356519,7.1669508 8.5149538,6.76158 7.85726,5.1742227 c 1.1504791,-0.4552516 2.368584,-0.7085 3.613178,-0.767309 z"
     id="path2"
     inkscape:connector-curvature="0"
     style="stroke-width:1" />
</svg>
