<?xml version="1.0" encoding="UTF-8" standalone="no"?>
<svg
   xmlns:dc="http://purl.org/dc/elements/1.1/"
   xmlns:cc="http://creativecommons.org/ns#"
   xmlns:rdf="http://www.w3.org/1999/02/22-rdf-syntax-ns#"
   xmlns:svg="http://www.w3.org/2000/svg"
   xmlns="http://www.w3.org/2000/svg"
   xmlns:sodipodi="http://sodipodi.sourceforge.net/DTD/sodipodi-0.dtd"
   xmlns:inkscape="http://www.inkscape.org/namespaces/inkscape"
   viewBox="0 0 24 24"
   enable-background="new 0 0 24 24"
   version="1.1"
   id="svg4"
   sodipodi:docname="GeothermalPlant.svg"
   inkscape:version="0.92.1 r15371">
  <metadata
     id="metadata10">
    <rdf:RDF>
      <cc:Work
         rdf:about="">
        <dc:format>image/svg+xml</dc:format>
        <dc:type
           rdf:resource="http://purl.org/dc/dcmitype/StillImage" />
        <dc:title></dc:title>
      </cc:Work>
    </rdf:RDF>
  </metadata>
  <defs
     id="defs8" />
  <sodipodi:namedview
     pagecolor="#ffffff"
     bordercolor="#666666"
     borderopacity="1"
     objecttolerance="10"
     gridtolerance="10"
     guidetolerance="10"
     inkscape:pageopacity="0"
     inkscape:pageshadow="2"
     inkscape:window-width="1920"
     inkscape:window-height="1013"
     id="namedview6"
     showgrid="false"
     inkscape:zoom="19.666667"
     inkscape:cx="20.174529"
     inkscape:cy="6.5265427"
     inkscape:window-x="-9"
     inkscape:window-y="-9"
     inkscape:window-maximized="1"
     inkscape:current-layer="svg4" />
  <path
     d="M 16.722033,0.37288138 15.700211,8.547457 H 14.38644 V 3.8762712 H 2.7084745 V 8.547457 H 0.37288135 V 21.39322 c 0,1.284576 1.05101685,2.335593 2.33559315,2.335593 h 5.838983 c 0,-3.50339 -2.3355932,-3.50339 -2.3355932,-8.174576 H 3.8762711 L 7.3796609,10.88305 10.883051,15.554237 H 8.5474575 c 0,3.503389 2.3355935,3.620169 2.3355935,8.174576 h 7.006779 c 0,-3.50339 -2.335593,-3.50339 -2.335593,-8.174576 h -2.335593 l 3.503389,-4.671187 3.50339,4.671187 H 17.88983 c 0,4.671186 2.335593,4.671186 2.335593,8.174576 h 1.167797 c 1.284576,0 2.335593,-1.051017 2.335593,-2.335593 V 8.547457 H 21.247245 L 20.225423,0.37288138 Z M 5.0440677,6.2118644 H 7.3796609 V 8.547457 H 5.0440677 Z m 4.6711864,0 H 12.050847 V 8.547457 H 9.7152541 Z"
     id="path2"
     inkscape:connector-curvature="0"
     style="stroke-width:0.99999994" />
</svg>
