<svg id="Layer_1" enable-background="new 0 0 511.768 511.768" height="512" viewBox="0 0 511.768 511.768" width="512" xmlns="http://www.w3.org/2000/svg"><g><path d="m382.971 130.741v-30h-22.593c4.219-8.961 6.59-18.957 6.59-29.5v-71.241h-55.641c-22.073 0-41.761 10.356-54.501 26.451-12.741-16.095-32.429-26.451-54.502-26.451h-55.641v71.241c0 10.543 2.371 20.539 6.59 29.5h-22.593v30z"/><path d="m449.686 481.768v-144.754c0-67.989-29.605-132.098-79.481-176.271h-82.822l21.162 34.352-25.543 15.734-26.175-42.488-26.175 42.488-25.543-15.734 21.162-34.352h-82.822c-49.877 44.173-79.482 108.282-79.482 176.271v144.754h-20.946v30h425.725v-30zm-174.585-71.829h-4.217v18.81h-30v-18.81h-32.304v-30h66.521c7.216 0 13.087-5.871 13.087-13.087s-5.871-13.087-13.087-13.087h-30.87c-23.155 0-41.994-18.839-41.994-41.994 0-22.028 17.052-40.136 38.647-41.849v-18.956h30v18.811h25.466v30h-52.12c-6.613 0-11.994 5.381-11.994 11.994s5.381 11.994 11.994 11.994h30.87c23.758 0 43.087 19.329 43.087 43.087s-19.329 43.087-43.086 43.087z"/></g></svg>