<?xml version="1.0" encoding="iso-8859-1"?>
<!-- Generator: Adobe Illustrator 19.0.0, SVG Export Plug-In . SVG Version: 6.00 Build 0)  -->
<svg version="1.1" id="Capa_1" xmlns="http://www.w3.org/2000/svg" xmlns:xlink="http://www.w3.org/1999/xlink" x="0px" y="0px"
	 viewBox="0 0 512 512" style="enable-background:new 0 0 512 512;" xml:space="preserve">
<g>
	<g>
		<polygon points="276.908,0.418 276.908,142.622 388.501,176.958 388.501,35.837 		"/>
	</g>
</g>
<g>
	<g>
		<polygon points="276.908,174.009 276.908,301.296 417.643,344.599 417.643,217.312 		"/>
	</g>
</g>
<g>
	<g>
		<path d="M221.792,59.913c-33.259,0-65.419,9.822-93.003,28.404c-19.691,13.265-36.098,30.384-48.434,50.298l161.061,133.883
			V59.913H221.792z"/>
	</g>
</g>
<g>
	<g>
		<polygon points="445.574,481.582 445.574,384.581 276.908,332.684 276.908,481.582 241.416,481.582 241.416,357.566 
			140.197,481.582 101.473,481.582 240.742,310.948 66.577,166.173 66.426,166.546 66.426,481.582 0,481.582 0,511.582 512,511.582 
			512,481.582 		"/>
	</g>
</g>
<g>
</g>
<g>
</g>
<g>
</g>
<g>
</g>
<g>
</g>
<g>
</g>
<g>
</g>
<g>
</g>
<g>
</g>
<g>
</g>
<g>
</g>
<g>
</g>
<g>
</g>
<g>
</g>
<g>
</g>
</svg>
