<?xml version="1.0" encoding="UTF-8" standalone="no"?>
<svg
   xmlns:dc="http://purl.org/dc/elements/1.1/"
   xmlns:cc="http://creativecommons.org/ns#"
   xmlns:rdf="http://www.w3.org/1999/02/22-rdf-syntax-ns#"
   xmlns:svg="http://www.w3.org/2000/svg"
   xmlns="http://www.w3.org/2000/svg"
   xmlns:sodipodi="http://sodipodi.sourceforge.net/DTD/sodipodi-0.dtd"
   xmlns:inkscape="http://www.inkscape.org/namespaces/inkscape"
   version="1"
   viewBox="0 0 24 24"
   enable-background="new 0 0 26 26"
   id="svg4"
   sodipodi:docname="MarketManipulator.svg"
   width="24"
   height="24"
   inkscape:version="0.92.1 r15371">
  <metadata
     id="metadata10">
    <rdf:RDF>
      <cc:Work
         rdf:about="">
        <dc:format>image/svg+xml</dc:format>
        <dc:type
           rdf:resource="http://purl.org/dc/dcmitype/StillImage" />
        <dc:title></dc:title>
      </cc:Work>
    </rdf:RDF>
  </metadata>
  <defs
     id="defs8" />
  <sodipodi:namedview
     pagecolor="#ffffff"
     bordercolor="#666666"
     borderopacity="1"
     objecttolerance="10"
     gridtolerance="10"
     guidetolerance="10"
     inkscape:pageopacity="0"
     inkscape:pageshadow="2"
     inkscape:window-width="1920"
     inkscape:window-height="1013"
     id="namedview6"
     showgrid="false"
     inkscape:zoom="9.0769231"
     inkscape:cx="13"
     inkscape:cy="13"
     inkscape:window-x="-9"
     inkscape:window-y="-9"
     inkscape:window-maximized="1"
     inkscape:current-layer="svg4" />
  <path
     d="m 2.8474577,0.10169491 c -1.5559322,0 -2.7457627,1.18983049 -2.7457627,2.74576269 V 16.576271 c 0,1.555932 1.1898305,2.745763 2.7457627,2.745763 h 5.4915255 v 1.830508 h 7.3220338 v -1.830508 h 5.491526 c 1.555932,0 2.745762,-1.189831 2.745762,-2.745763 V 2.8474576 c 0,-1.5559322 -1.18983,-2.74576269 -2.745762,-2.74576269 z m 0,1.83050849 H 21.152543 c 0.549152,0 0.915254,0.3661017 0.915254,0.9152542 V 14.745763 c 0,0.549152 -0.366102,0.915254 -0.915254,0.915254 H 2.8474577 c -0.5491525,0 -0.9152542,-0.366102 -0.9152542,-0.915254 V 2.8474576 c 0,-0.5491525 0.3661017,-0.9152542 0.9152542,-0.9152542 z m 7.6080513,1.8305085 c -1.1898309,0 -1.6588987,2.4769068 -2.1165258,4.032839 -1.281356,0.1830508 -2.7457628,1.0125 -2.7457628,1.2870763 0,0.5491525 2.9288136,1.0868638 6.4067796,1.0868638 3.477966,0 6.40678,-0.4461859 6.40678,-1.0868638 0,-0.2745763 -1.464407,-1.1040255 -2.745763,-1.2870763 -0.366102,-1.6474577 -0.926695,-4.032839 -2.116525,-4.032839 -0.640678,0 -0.903814,0.9152542 -1.544492,0.9152542 -0.640678,0 -0.903813,-0.9152542 -1.544491,-0.9152542 z M 8.0529662,10.627119 c 0,0 0.1830509,3.203389 1.3728814,3.203389 1.3728814,0 1.8419494,-1.001059 2.5741524,-1.001059 0.732204,0 1.384322,1.001059 2.574153,1.001059 1.098305,0 1.458686,-3.203389 1.458686,-3.203389 0,0 -1.922034,0.286017 -4.118644,0.286017 -2.1966101,0 -3.8612288,-0.286017 -3.8612288,-0.286017 z m 1.1154661,1.001059 c 0.7322034,0.09153 1.8305087,0.360381 1.8305087,0.543432 0,0.183051 -0.371822,0.480509 -0.829449,0.572034 -0.9152546,0.183051 -1.0010597,-0.932415 -1.0010597,-1.115466 z m 5.4057207,0 c 0.09153,0.183051 -0.114407,1.298517 -1.029661,1.115466 -0.457627,-0.09152 -0.800848,-0.388983 -0.800848,-0.572034 0,-0.183051 1.098305,-0.451907 1.830509,-0.543432 z m 6.57839,4.948093 c 0.549152,0 0.915254,0.457627 0.915254,0.915254 0,0.549153 -0.366102,0.915255 -0.915254,0.915255 -0.549153,0 -0.915255,-0.457628 -0.915255,-0.915255 0,-0.549152 0.457627,-0.915254 0.915255,-0.915254 z M 6.1366526,22.067797 c -0.8237288,0 -1.4586864,0.634957 -1.4586864,1.458686 v 0.371822 H 19.322034 v -0.371822 c 0,-0.823729 -0.634958,-1.458686 -1.458686,-1.458686 z"
     id="path2"
     inkscape:connector-curvature="0"
     style="stroke-width:1" />
</svg>
