<?xml version="1.0" encoding="UTF-8" standalone="no"?>
<!-- Generator: Adobe Illustrator 16.0.0, SVG Export Plug-In . SVG Version: 6.00 Build 0)  -->

<svg
   xmlns:dc="http://purl.org/dc/elements/1.1/"
   xmlns:cc="http://creativecommons.org/ns#"
   xmlns:rdf="http://www.w3.org/1999/02/22-rdf-syntax-ns#"
   xmlns:svg="http://www.w3.org/2000/svg"
   xmlns="http://www.w3.org/2000/svg"
   xmlns:sodipodi="http://sodipodi.sourceforge.net/DTD/sodipodi-0.dtd"
   xmlns:inkscape="http://www.inkscape.org/namespaces/inkscape"
   version="1.1"
   id="Capa_1"
   x="0px"
   y="0px"
   width="24"
   height="24"
   viewBox="0 0 24.000001 24.000001"
   xml:space="preserve"
   sodipodi:docname="Mine.svg"
   inkscape:version="0.92.1 r15371"><metadata
     id="metadata41"><rdf:RDF><cc:Work
         rdf:about=""><dc:format>image/svg+xml</dc:format><dc:type
           rdf:resource="http://purl.org/dc/dcmitype/StillImage" /><dc:title></dc:title></cc:Work></rdf:RDF></metadata><defs
     id="defs39" /><sodipodi:namedview
     pagecolor="#ffffff"
     bordercolor="#666666"
     borderopacity="1"
     objecttolerance="10"
     gridtolerance="10"
     guidetolerance="10"
     inkscape:pageopacity="0"
     inkscape:pageshadow="2"
     inkscape:window-width="1920"
     inkscape:window-height="1013"
     id="namedview37"
     showgrid="false"
     inkscape:zoom="16.404233"
     inkscape:cx="14.735462"
     inkscape:cy="0.3111284"
     inkscape:window-x="-9"
     inkscape:window-y="-9"
     inkscape:window-maximized="1"
     inkscape:current-layer="Capa_1" /><g
     id="g4"
     transform="matrix(0.05144355,0,0,0.05144355,0.15849217,0.15850357)"
     style="stroke-width:19.43878555"><path
       d="M 410.501,399.081 H 391.175 V 300.88 c 0,-2.587 -2.1,-4.685 -4.688,-4.685 H 364.675 V 221.16 l 2.283,0.945 c 1.174,0.485 2.387,0.715 3.582,0.715 3.676,0 7.166,-2.179 8.66,-5.787 l 13.336,-32.207 c 0.949,-2.297 0.949,-4.876 -0.002,-7.172 -0.951,-2.296 -2.775,-4.119 -5.072,-5.07 L 184.937,88.729 c 7.402,-14.116 14.053,-28.497 19.77,-42.741 1.912,-4.766 -0.367,-10.183 -5.111,-12.146 L 119.594,0.715 C 114.854,-1.25 109.408,0.97 107.393,5.693 87.584,52.08 74.807,103.779 67.182,168.392 c -0.492,4.166 1.846,8.151 5.723,9.756 l 34.289,14.196 c 3.871,1.604 8.342,0.439 10.941,-2.854 14.873,-18.861 27.713,-36.576 39.252,-54.157 l 40.48,16.76 -1.992,13.795 -6.035,41.782 -27.639,191.411 H 97.502 49.868 c -5.174,0 -9.369,4.193 -9.369,9.369 V 451 c 0,5.174 4.195,9.369 9.369,9.369 h 360.633 c 5.174,0 9.369,-4.195 9.369,-9.369 v -42.55 c 0,-5.176 -4.195,-9.369 -9.369,-9.369 z M 345.937,296.195 h -21.812 c -2.59,0 -4.688,2.098 -4.688,4.685 v 98.201 h -21.27 l -27.641,-191.411 -3.913,-27.112 79.321,32.844 v 82.793 z m -92.551,-63.461 -32.929,-24.563 26.187,-22.133 z m -10.992,17.434 -41.762,26.553 7.523,-52.095 z m 15.595,14.437 10.059,69.673 -54.205,-41.605 z m -40.186,134.476 53.958,-39.097 5.646,39.097 z m 18.395,-231.118 -22.623,19.118 3.881,-26.878 z m -39.69,137.306 56.203,43.141 -69.727,50.521 z"
       id="path2"
       inkscape:connector-curvature="0"
       style="stroke-width:19.43878555" /></g><g
     id="g6"
     transform="translate(0,-436.36899)" /><g
     id="g8"
     transform="translate(0,-436.36899)" /><g
     id="g10"
     transform="translate(0,-436.36899)" /><g
     id="g12"
     transform="translate(0,-436.36899)" /><g
     id="g14"
     transform="translate(0,-436.36899)" /><g
     id="g16"
     transform="translate(0,-436.36899)" /><g
     id="g18"
     transform="translate(0,-436.36899)" /><g
     id="g20"
     transform="translate(0,-436.36899)" /><g
     id="g22"
     transform="translate(0,-436.36899)" /><g
     id="g24"
     transform="translate(0,-436.36899)" /><g
     id="g26"
     transform="translate(0,-436.36899)" /><g
     id="g28"
     transform="translate(0,-436.36899)" /><g
     id="g30"
     transform="translate(0,-436.36899)" /><g
     id="g32"
     transform="translate(0,-436.36899)" /><g
     id="g34"
     transform="translate(0,-436.36899)" /></svg>