<?xml version="1.0" encoding="iso-8859-1"?>
<!-- Generator: Adobe Illustrator 19.0.0, SVG Export Plug-In . SVG Version: 6.00 Build 0)  -->
<svg version="1.1" id="Capa_1" xmlns="http://www.w3.org/2000/svg" xmlns:xlink="http://www.w3.org/1999/xlink" x="0px" y="0px"
	 viewBox="0 0 512 512" style="enable-background:new 0 0 512 512;" xml:space="preserve">
<g>
	<g>
		<path d="M256,120c-8.291,0-15,6.709-15,15v30c0,8.291,6.709,15,15,15s15-6.709,15-15v-30C271,126.709,264.291,120,256,120z"/>
	</g>
</g>
<g>
	<g>
		<path d="M372.675,110.464l-21.211-21.211c-5.86-5.859-15.352-5.859-21.211,0s-5.859,15.352,0,21.211l21.211,21.211
			c5.859,5.859,15.352,5.859,21.211,0S378.534,116.323,372.675,110.464z"/>
	</g>
</g>
<g>
	<g>
		<path d="M406,0h-30c-8.291,0-15,6.709-15,15s6.709,15,15,15h30c8.291,0,15-6.709,15-15S414.291,0,406,0z"/>
	</g>
</g>
<g>
	<g>
		<path d="M136,0h-30c-8.291,0-15,6.709-15,15s6.709,15,15,15h30c8.291,0,15-6.709,15-15S144.291,0,136,0z"/>
	</g>
</g>
<g>
	<g>
		<path d="M181.747,89.253c-5.859-5.859-15.352-5.859-21.211,0l-21.211,21.211c-5.859,5.859-5.859,15.351,0,21.211
			c5.859,5.859,15.352,5.859,21.211,0l21.211-21.211C187.606,104.605,187.606,95.112,181.747,89.253z"/>
	</g>
</g>
<g>
	<g>
		<path d="M316,0H196c-8.291,0-15,6.709-15,15c0,41.353,33.647,75,75,75c41.353,0,75-33.647,75-75C331,6.709,324.291,0,316,0z"/>
	</g>
</g>
<g>
	<g>
		<polygon points="348.704,316 271,316 271,391 363.704,391 		"/>
	</g>
</g>
<g>
	<g>
		<polygon points="184.296,210 169.296,286 241,286 241,210 		"/>
	</g>
</g>
<g>
	<g>
		<path d="M450.931,219.434C448.646,213.735,443.138,210,437,210h-78.704l15,76h103.861L450.931,219.434z"/>
	</g>
</g>
<g>
	<g>
		<polygon points="163.296,316 148.296,391 241,391 241,316 		"/>
	</g>
</g>
<g>
	<g>
		<path d="M22.842,316L1.069,370.434c-1.846,4.614-1.274,9.858,1.509,13.975C5.376,388.524,10.02,391,15,391h102.704l15-75
			C129.793,316,28.488,316,22.842,316z"/>
	</g>
</g>
<g>
	<g>
		<path d="M510.931,370.433L489.158,316H379.296l15,75H497c4.98,0,9.624-2.476,12.422-6.592
			C512.205,380.292,512.776,375.048,510.931,370.433z"/>
	</g>
</g>
<g>
	<g>
		<polygon points="327.704,210 271,210 271,286 342.704,286 		"/>
	</g>
</g>
<g>
	<g>
		<path d="M75,210c-6.138,0-11.646,3.735-13.931,9.434L34.843,286c3.542,0,100.3,0,103.861,0l15-76H75z"/>
	</g>
</g>
<g>
	<g>
		<path d="M316,452h-15v-31h-90v31h-15c-24.853,0-45,20.147-45,45c0,8.284,6.716,15,15,15h180c8.284,0,15-6.716,15-15
			C361,472.147,340.853,452,316,452z"/>
	</g>
</g>
<g>
</g>
<g>
</g>
<g>
</g>
<g>
</g>
<g>
</g>
<g>
</g>
<g>
</g>
<g>
</g>
<g>
</g>
<g>
</g>
<g>
</g>
<g>
</g>
<g>
</g>
<g>
</g>
<g>
</g>
</svg>
