<?xml version="1.0" encoding="UTF-8" standalone="no"?>
<!-- Generator: Adobe Illustrator 16.0.0, SVG Export Plug-In . SVG Version: 6.00 Build 0)  -->

<svg
   xmlns:dc="http://purl.org/dc/elements/1.1/"
   xmlns:cc="http://creativecommons.org/ns#"
   xmlns:rdf="http://www.w3.org/1999/02/22-rdf-syntax-ns#"
   xmlns:svg="http://www.w3.org/2000/svg"
   xmlns="http://www.w3.org/2000/svg"
   xmlns:sodipodi="http://sodipodi.sourceforge.net/DTD/sodipodi-0.dtd"
   xmlns:inkscape="http://www.inkscape.org/namespaces/inkscape"
   version="1.1"
   id="Capa_1"
   x="0px"
   y="0px"
   width="24"
   height="24"
   viewBox="0 0 24.000001 24.000001"
   xml:space="preserve"
   sodipodi:docname="WindTurbine.svg"
   inkscape:version="0.92.1 r15371"><metadata
     id="metadata45"><rdf:RDF><cc:Work
         rdf:about=""><dc:format>image/svg+xml</dc:format><dc:type
           rdf:resource="http://purl.org/dc/dcmitype/StillImage" /><dc:title></dc:title></cc:Work></rdf:RDF></metadata><defs
     id="defs43" /><sodipodi:namedview
     pagecolor="#ffffff"
     bordercolor="#666666"
     borderopacity="1"
     objecttolerance="10"
     gridtolerance="10"
     guidetolerance="10"
     inkscape:pageopacity="0"
     inkscape:pageshadow="2"
     inkscape:window-width="1920"
     inkscape:window-height="1013"
     id="namedview41"
     showgrid="false"
     inkscape:zoom="11.456453"
     inkscape:cx="19.844918"
     inkscape:cy="28.088368"
     inkscape:window-x="-9"
     inkscape:window-y="-9"
     inkscape:window-maximized="1"
     inkscape:current-layer="Capa_1" /><g
     id="g8"
     transform="matrix(0.05074348,0,0,0.05074348,0.173706,0.17374992)"
     style="stroke-width:19.70696449"><g
       id="g6"
       style="stroke-width:19.70696449"><path
         d="m 199.203,221.43 c 23.254,13.427 61.111,27.919 81.717,27.921 h 0.007 c 8.381,0 14.074,-2.498 16.914,-7.424 1.012,-1.748 1.276,-3.781 0.754,-5.711 -0.519,-1.943 -1.762,-3.567 -3.508,-4.577 L 188.535,170.122 c -0.053,-0.03 -0.108,-0.053 -0.16,-0.082 0.052,-0.856 0.082,-1.717 0.082,-2.586 0,-18.74 -11.869,-34.756 -28.485,-40.931 3.928,-6.712 5.727,-16.543 5.727,-30.851 0,-17.837 -2.781,-40.29 -7.258,-58.601 C 152.254,11.78 144.53,0 134.127,0 c -4.151,0 -7.528,3.379 -7.528,7.53 V 127.8 c -14.998,6.916 -25.441,22.085 -25.441,39.655 0,3.321 0.385,6.552 1.094,9.662 -7.58,0.207 -16.729,3.536 -28.709,10.451 -15.452,8.923 -33.507,22.558 -47.118,35.585 -18.813,18.002 -25.15,30.583 -19.949,39.592 1.004,1.74 2.627,2.986 4.586,3.513 0.633,0.167 1.285,0.253 1.934,0.253 1.32,0 2.623,-0.349 3.766,-1.009 l 105.312,-60.803 c 0.697,0.427 1.414,0.824 2.135,1.212 L 98.682,456.209 c -0.258,2.531 0.567,5.055 2.274,6.943 1.705,1.891 4.131,2.967 6.679,2.967 h 74.354 c 2.545,0 4.971,-1.076 6.678,-2.967 1.705,-1.889 2.533,-4.412 2.273,-6.943 L 165.41,205.911 c 3.306,-1.778 6.359,-3.961 9.086,-6.495 3.509,7.354 11.324,14.287 24.707,22.014 z"
         id="path2"
         inkscape:connector-curvature="0"
         style="stroke-width:19.70696449" /><path
         d="m 461.203,299.102 c -0.379,-1.412 -1.28,-2.592 -2.549,-3.326 l -77.408,-44.689 c -0.036,-0.021 -0.075,-0.039 -0.114,-0.061 0.037,-0.621 0.061,-1.248 0.061,-1.879 0,-13.613 -8.623,-25.249 -20.694,-29.734 2.854,-4.876 4.159,-12.019 4.159,-22.412 0,-12.958 -2.02,-29.271 -5.271,-42.572 -4.494,-18.374 -10.107,-26.933 -17.662,-26.933 -3.018,0 -5.473,2.455 -5.473,5.472 v 87.372 c -10.896,5.024 -18.48,16.044 -18.48,28.81 0,2.412 0.279,4.76 0.791,7.02 -5.504,0.15 -12.152,2.568 -20.854,7.592 -11.228,6.482 -24.345,16.389 -34.232,25.852 -13.664,13.08 -18.271,22.22 -14.492,28.765 0.73,1.265 1.908,2.169 3.334,2.552 0.459,0.121 0.932,0.184 1.404,0.184 0.957,0 1.903,-0.254 2.733,-0.732 l 76.507,-44.172 c 0.508,0.311 1.026,0.6 1.551,0.881 L 315.969,458.92 c -0.189,1.84 0.412,3.674 1.652,5.045 1.237,1.373 3.002,2.154 4.852,2.154 h 54.016 c 1.853,0 3.613,-0.781 4.853,-2.154 1.239,-1.371 1.842,-3.205 1.651,-5.045 L 364.45,277.083 c 2.398,-1.292 4.617,-2.877 6.601,-4.719 2.549,5.344 8.227,10.38 17.946,15.993 16.896,9.754 44.396,20.283 59.367,20.283 h 0.004 c 6.089,0 10.226,-1.813 12.287,-5.393 0.734,-1.267 0.927,-2.745 0.548,-4.145 z"
         id="path4"
         inkscape:connector-curvature="0"
         style="stroke-width:19.70696449" /></g></g><g
     id="g10"
     transform="translate(0,-442.11899)" /><g
     id="g12"
     transform="translate(0,-442.11899)" /><g
     id="g14"
     transform="translate(0,-442.11899)" /><g
     id="g16"
     transform="translate(0,-442.11899)" /><g
     id="g18"
     transform="translate(0,-442.11899)" /><g
     id="g20"
     transform="translate(0,-442.11899)" /><g
     id="g22"
     transform="translate(0,-442.11899)" /><g
     id="g24"
     transform="translate(0,-442.11899)" /><g
     id="g26"
     transform="translate(0,-442.11899)" /><g
     id="g28"
     transform="translate(0,-442.11899)" /><g
     id="g30"
     transform="translate(0,-442.11899)" /><g
     id="g32"
     transform="translate(0,-442.11899)" /><g
     id="g34"
     transform="translate(0,-442.11899)" /><g
     id="g36"
     transform="translate(0,-442.11899)" /><g
     id="g38"
     transform="translate(0,-442.11899)" /></svg>