<?xml version="1.0" encoding="iso-8859-1"?>
<!-- Generator: Adobe Illustrator 19.0.0, SVG Export Plug-In . SVG Version: 6.00 Build 0)  -->
<svg version="1.1" id="Capa_1" xmlns="http://www.w3.org/2000/svg" xmlns:xlink="http://www.w3.org/1999/xlink" x="0px" y="0px"
	 viewBox="0 0 511.99 511.99" style="enable-background:new 0 0 511.99 511.99;" xml:space="preserve">
<g>
	<g>
		<path d="M448.865,343.566c-0.03-0.8-0.09-1.59-0.15-2.38c-0.06-0.85-0.13-1.69-0.22-2.529c-0.08-0.83-0.17-1.66-0.28-2.479
			c-0.05-0.39-0.1-0.79-0.16-1.18c-0.06-0.53-0.14-1.05-0.22-1.57c-0.03-0.23-0.06-0.45-0.11-0.67c-0.08-0.6-0.18-1.19-0.29-1.79
			c-0.14-0.81-0.29-1.61-0.45-2.409c-0.07-0.36-0.15-0.72-0.23-1.07c-0.12-0.61-0.25-1.22-0.4-1.82c-0.14-0.63-0.29-1.26-0.45-1.87
			c-0.16-0.68-0.34-1.36-0.52-2.03c-0.04-0.16-0.08-0.31-0.12-0.45c-0.13-0.47-0.26-0.93-0.4-1.39c-0.15-0.54-0.31-1.09-0.49-1.63
			c-0.05-0.2-0.11-0.4-0.18-0.59c-0.15-0.49-0.3-0.97-0.47-1.46c-0.16-0.48-0.32-0.96-0.49-1.43c-0.1-0.31-0.21-0.62-0.32-0.92
			c-0.16-0.45-0.32-0.9-0.5-1.34c-0.1-0.31-0.22-0.62-0.34-0.92c-0.21-0.55-0.42-1.08-0.64-1.62c-0.05-0.15-0.11-0.29-0.17-0.43
			c-0.26-0.64-0.53-1.28-0.8-1.91l-0.18-0.42c-0.29-0.66-0.59-1.31-0.89-1.96c-0.29-0.63-0.58-1.26-0.89-1.88
			c-0.17-0.37-0.35-0.73-0.54-1.09c-0.23-0.48-0.48-0.96-0.73-1.43c-0.37-0.73-0.76-1.45-1.15-2.16c-0.38-0.68-0.76-1.36-1.15-2.04
			c-0.1-0.17-0.2-0.33-0.3-0.5c-0.32-0.56-0.66-1.12-0.99-1.67c-0.02-0.03-0.04-0.06-0.06-0.09c-0.41-0.67-0.83-1.33-1.25-1.98
			c-3.519-5.469-7.528-10.578-11.977-15.277c-0.72-0.77-1.46-1.53-2.22-2.269c-0.54-0.55-1.09-1.09-1.65-1.62
			c-0.64-0.61-1.28-1.21-1.94-1.8c-0.59-0.54-1.19-1.07-1.79-1.58c-0.63-0.55-1.27-1.1-1.92-1.63c-0.54-0.45-1.09-0.89-1.64-1.33
			c-0.01,0-0.01-0.01-0.02-0.01c-0.9-0.71-1.81-1.41-2.739-2.09c-0.39-0.3-0.79-0.59-1.19-0.87c-0.25-0.19-0.51-0.37-0.77-0.55
			c-0.5-0.35-1-0.7-1.51-1.05c-0.09-0.06-0.19-0.12-0.28-0.19c-0.54-0.36-1.09-0.72-1.64-1.08c-0.26-0.17-0.52-0.33-0.78-0.5
			c-1.14-0.73-2.299-1.43-3.479-2.11c-0.46-0.27-0.92-0.54-1.39-0.79c-0.36-0.21-0.72-0.41-1.09-0.61c-0.55-0.31-1.11-0.61-1.68-0.9
			c-0.45-0.23-0.9-0.47-1.35-0.69c-2.979-1.51-6.049-2.879-9.198-4.089c-0.55-0.23-1.11-0.44-1.67-0.64
			c-0.18-0.07-0.36-0.14-0.54-0.2c-0.47-0.17-0.94-0.34-1.42-0.5c-0.35-0.13-0.69-0.24-1.04-0.36c-0.47-0.16-0.93-0.31-1.4-0.45
			c-1.99-0.64-3.999-1.22-6.039-1.73c-0.72-0.19-1.45-0.36-2.18-0.53c-0.77-0.18-1.54-0.35-2.32-0.51c-0.13-0.03-0.26-0.05-0.4-0.08
			c-0.77-0.16-1.55-0.31-2.339-0.45c-0.03,0-0.06-0.01-0.09-0.01c-0.85-0.16-1.71-0.3-2.57-0.43c-0.79-0.12-1.58-0.23-2.369-0.34
			c-0.81-0.1-1.61-0.19-2.419-0.28c-0.35-0.04-0.71-0.07-1.07-0.1c-0.66-0.07-1.33-0.13-2-0.18c-0.03,0-0.07-0.01-0.1,0
			c-0.78-0.07-1.57-0.12-2.359-0.15c-0.17-0.02-0.33-0.03-0.5-0.03c-0.57-0.03-1.14-0.06-1.72-0.07c-0.3-0.01-0.61-0.02-0.91-0.03
			c-0.84-0.02-1.68-0.03-2.529-0.03c-3.879,0-7.698,0.21-11.468,0.62c-0.12-0.91-0.25-1.82-0.4-2.729c-0.14-0.9-0.29-1.8-0.46-2.699
			c-0.36-1.98-0.77-3.939-1.25-5.889c-0.15-0.69-0.32-1.37-0.5-2.05c0-0.03-0.01-0.06-0.03-0.09c-0.21-0.86-0.45-1.71-0.69-2.549
			c-0.2-0.74-0.42-1.47-0.64-2.19c-0.13-0.41-0.25-0.82-0.39-1.23c-0.13-0.44-0.27-0.87-0.42-1.3c-0.18-0.54-0.36-1.08-0.55-1.61
			c-0.05-0.16-0.1-0.32-0.17-0.48c-0.23-0.68-0.48-1.35-0.73-2.01c-0.06-0.19-0.14-0.38-0.22-0.57c-0.18-0.5-0.38-1-0.58-1.5
			c-0.18-0.46-0.36-0.92-0.56-1.37c-0.09-0.24-0.18-0.47-0.29-0.71c-0.24-0.57-0.48-1.14-0.73-1.71c-0.11-0.26-0.23-0.52-0.35-0.78
			c-0.22-0.49-0.44-0.98-0.67-1.46c-0.2-0.43-0.4-0.87-0.61-1.3c-0.09-0.19-0.18-0.37-0.28-0.56c-0.28-0.59-0.57-1.17-0.87-1.75
			c-0.1-0.2-0.2-0.4-0.31-0.6c-0.29-0.57-0.59-1.13-0.89-1.69c-0.09-0.16-0.18-0.33-0.27-0.5c-0.34-0.62-0.69-1.24-1.04-1.86
			c0-0.01-0.01-0.01-0.01-0.01c-0.41-0.73-0.83-1.45-1.26-2.16c-0.36-0.6-0.73-1.2-1.1-1.8c-0.38-0.61-0.77-1.21-1.16-1.81
			c-0.68-1.05-1.38-2.08-2.1-3.099c-0.88-1.27-1.79-2.509-2.719-3.739c-0.53-0.69-1.07-1.38-1.62-2.07
			c-0.54-0.68-1.1-1.36-1.66-2.03c-0.59-0.71-1.19-1.41-1.8-2.1c-0.55-0.63-1.1-1.24-1.67-1.86c-0.58-0.63-1.17-1.27-1.77-1.89
			c-0.04-0.04-0.07-0.07-0.1-0.1c-0.58-0.61-1.17-1.2-1.77-1.79c-0.62-0.62-1.24-1.23-1.88-1.83c-1.27-1.21-2.57-2.389-3.889-3.529
			c-0.66-0.57-1.33-1.14-2-1.69l-0.01-0.01v-0.01h-0.01c-0.47-0.39-0.95-0.78-1.43-1.17c-0.65-0.52-1.31-1.03-1.97-1.54
			c-0.5-0.39-1.01-0.77-1.52-1.14c-0.51-0.39-1.02-0.76-1.54-1.12c-0.36-0.26-0.72-0.51-1.08-0.76c-1.07-0.75-2.16-1.48-3.269-2.2
			c-0.49-0.31-0.98-0.62-1.48-0.93c-0.6-0.38-1.21-0.75-1.82-1.12c-0.91-0.55-1.84-1.09-2.779-1.61c-0.93-0.53-1.88-1.04-2.829-1.54
			c-0.84-0.44-1.69-0.88-2.549-1.3c-0.64-0.31-1.29-0.62-1.94-0.93c-0.59-0.28-1.18-0.55-1.77-0.81c-0.57-0.26-1.14-0.51-1.71-0.75
			c-0.07-0.03-0.15-0.06-0.22-0.1c-0.55-0.23-1.11-0.47-1.66-0.69c-1.21-0.49-2.43-0.97-3.659-1.42c-0.61-0.23-1.23-0.45-1.85-0.66
			c-0.61-0.22-1.24-0.43-1.86-0.63c-1.25-0.41-2.499-0.8-3.769-1.17c-0.46-0.13-0.91-0.26-1.37-0.39c-0.33-0.1-0.67-0.19-1-0.27
			c-0.48-0.13-0.95-0.26-1.43-0.38c-1.29-0.33-2.589-0.63-3.899-0.91c-0.37-0.08-0.74-0.16-1.12-0.24
			c-0.54-0.11-1.09-0.22-1.63-0.32c-0.19-0.04-0.37-0.07-0.55-0.1c-0.78-0.15-1.55-0.29-2.33-0.41c-0.75-0.13-1.51-0.24-2.26-0.35
			c-0.74-0.11-1.48-0.21-2.22-0.29c-0.56-0.08-1.11-0.14-1.67-0.2c-2.35-0.26-4.729-0.44-7.119-0.54c-0.73-0.04-1.47-0.07-2.21-0.09
			c-0.26-0.01-0.53-0.01-0.8-0.01c-0.76-0.02-1.53-0.03-2.299-0.03c-62.987,0-114.046,51.059-114.046,114.046
			c0,6.559,0.56,12.977,1.62,19.236c-6.059-1.31-12.347-2.02-18.796-2.02C39.572,277.4,0,316.972,0,365.781
			c0,48.82,39.572,88.391,88.391,88.391h255.716c57.948,0,104.918-46.98,104.918-104.918
			C449.025,347.345,448.975,345.446,448.865,343.566z"/>
	</g>
</g>
<g>
	<g>
		<path d="M360.994,114.924c-23.805,0-46.01,8.998-62.727,24.605c4.289,2.779,8.448,5.809,12.437,9.088
			c1.41,1.14,2.789,2.32,4.159,3.519c2.419,2.13,4.749,4.329,7.008,6.609c15.747,15.877,27.524,35.113,34.493,56.138
			c21.466,1.92,41.881,8.868,59.857,20.296c4.239,2.679,8.338,5.619,12.287,8.798c3.819,3.069,7.488,6.369,10.998,9.878
			c0.14,0.14,0.28,0.28,0.41,0.42c8.478-14.107,13.077-30.384,13.077-47.36C452.995,156.186,411.723,114.924,360.994,114.924z"/>
	</g>
</g>
<g>
	<g>
		<rect x="335.031" y="59.003" transform="matrix(0.9965 -0.0831 0.0831 0.9965 -5.1353 29.3528)" width="29.992" height="34.719"/>
	</g>
</g>
<g>
	<g>
		
			<rect x="398.681" y="72.855" transform="matrix(0.4139 -0.9103 0.9103 0.4139 163.8654 430.2195)" width="34.72" height="29.993"/>
	</g>
</g>
<g>
	<g>
		<rect x="271.23" y="81.31" transform="matrix(0.8292 -0.559 0.559 0.8292 -6.2613 176.8521)" width="29.994" height="34.722"/>
	</g>
</g>
<g>
	<g>
		
			<rect x="450.732" y="115.088" transform="matrix(0.8056 -0.5925 0.5925 0.8056 13.9325 302.6295)" width="34.72" height="29.994"/>
	</g>
</g>
<g>
	<g>
		
			<rect x="475.545" y="177.342" transform="matrix(0.9923 -0.1239 0.1239 0.9923 -20.0327 62.5525)" width="34.721" height="29.994"/>
	</g>
</g>
<g>
	<g>
		
			<rect x="469.185" y="241.435" transform="matrix(0.3762 -0.9265 0.9265 0.3762 62.2442 610.0425)" width="29.993" height="34.718"/>
	</g>
</g>
<g>
</g>
<g>
</g>
<g>
</g>
<g>
</g>
<g>
</g>
<g>
</g>
<g>
</g>
<g>
</g>
<g>
</g>
<g>
</g>
<g>
</g>
<g>
</g>
<g>
</g>
<g>
</g>
<g>
</g>
</svg>
