<?xml version="1.0" encoding="UTF-8" standalone="no"?>
<!-- Created with Inkscape (http://www.inkscape.org/) -->

<svg
   xmlns:dc="http://purl.org/dc/elements/1.1/"
   xmlns:cc="http://creativecommons.org/ns#"
   xmlns:rdf="http://www.w3.org/1999/02/22-rdf-syntax-ns#"
   xmlns:svg="http://www.w3.org/2000/svg"
   xmlns="http://www.w3.org/2000/svg"
   xmlns:sodipodi="http://sodipodi.sourceforge.net/DTD/sodipodi-0.dtd"
   xmlns:inkscape="http://www.inkscape.org/namespaces/inkscape"
   width="41mm"
   height="63mm"
   viewBox="0 0 145.27559 223.22835"
   id="svg2"
   version="1.1"
   inkscape:version="0.92.1 r15371"
   sodipodi:docname="DemandFunding.svg">
  <defs
     id="defs4" />
  <sodipodi:namedview
     id="base"
     pagecolor="#ffffff"
     bordercolor="#666666"
     borderopacity="1.0"
     inkscape:pageopacity="0.0"
     inkscape:pageshadow="2"
     inkscape:zoom="1.8101934"
     inkscape:cx="-102.54608"
     inkscape:cy="40.383801"
     inkscape:document-units="px"
     inkscape:current-layer="layer1"
     showgrid="false"
     inkscape:window-width="1920"
     inkscape:window-height="1027"
     inkscape:window-x="1912"
     inkscape:window-y="-8"
     inkscape:window-maximized="1" />
  <metadata
     id="metadata7">
    <rdf:RDF>
      <cc:Work
         rdf:about="">
        <dc:format>image/svg+xml</dc:format>
        <dc:type
           rdf:resource="http://purl.org/dc/dcmitype/StillImage" />
        <dc:title></dc:title>
      </cc:Work>
    </rdf:RDF>
  </metadata>
  <g
     inkscape:label="Layer 1"
     inkscape:groupmode="layer"
     id="layer1"
     transform="translate(0,-829.13386)">
    <rect
       style="fill:#c1c1c2;fill-opacity:1;stroke:#0099ff;stroke-width:6.21656258;stroke-miterlimit:4;stroke-dasharray:none;stroke-dashoffset:0;stroke-opacity:0"
       id="rect4162-2"
       width="131.10355"
       height="208.33664"
       x="7.6842871"
       y="836.3905" />
    <path
       style="fill:none;fill-rule:evenodd;stroke:#000000;stroke-width:2.34545517;stroke-linecap:butt;stroke-linejoin:miter;stroke-miterlimit:4;stroke-dasharray:none;stroke-opacity:1"
       d="m 7.2306927,848.99002 c -0.02693,-12.85551 -0.04584,-12.83975 12.6847623,-12.66367"
       id="path4196"
       inkscape:connector-curvature="0"
       sodipodi:nodetypes="cc" />
    <path
       style="fill:none;fill-rule:evenodd;stroke:#000000;stroke-width:2.34545517;stroke-linecap:butt;stroke-linejoin:miter;stroke-miterlimit:4;stroke-dasharray:none;stroke-opacity:1"
       d="m 138.01684,848.98418 c 0.0269,-12.85551 0.0458,-12.83975 -12.68476,-12.66367"
       id="path4196-7"
       inkscape:connector-curvature="0"
       sodipodi:nodetypes="cc" />
    <path
       style="fill:none;fill-rule:evenodd;stroke:#000000;stroke-width:2.34545517;stroke-linecap:butt;stroke-linejoin:miter;stroke-miterlimit:4;stroke-dasharray:none;stroke-opacity:1"
       d="m 7.2719293,1032.4412 c -0.02693,12.8555 -0.04584,12.8398 12.6847627,12.6637"
       id="path4196-6"
       inkscape:connector-curvature="0"
       sodipodi:nodetypes="cc" />
    <path
       style="fill:none;fill-rule:evenodd;stroke:#000000;stroke-width:2.34545517;stroke-linecap:butt;stroke-linejoin:miter;stroke-miterlimit:4;stroke-dasharray:none;stroke-opacity:1"
       d="m 138.05807,1032.4471 c 0.0269,12.8555 0.0458,12.8397 -12.68476,12.6636"
       id="path4196-7-5"
       inkscape:connector-curvature="0"
       sodipodi:nodetypes="cc" />
    <flowRoot
       xml:space="preserve"
       id="flowRoot4231"
       style="font-style:normal;font-variant:normal;font-weight:normal;font-stretch:normal;line-height:0.01%;font-family:'Franklin Gothic Medium';-inkscape-font-specification:'Franklin Gothic Medium, ';text-align:center;letter-spacing:0px;word-spacing:0px;text-anchor:middle;fill:#000000;fill-opacity:1;stroke:none;stroke-width:1px;stroke-linecap:butt;stroke-linejoin:miter;stroke-opacity:1"
       transform="translate(0,833.00886)"><flowRegion
         id="flowRegion4233"
         style="font-size:30px"><rect
           id="rect4235"
           width="128.91885"
           height="36.012482"
           x="7.8879333"
           y="25.192633"
           style="font-style:normal;font-variant:normal;font-weight:normal;font-stretch:normal;font-size:27.5px;font-family:'Franklin Gothic Medium';-inkscape-font-specification:'Franklin Gothic Medium, ';text-align:center;text-anchor:middle" /></flowRegion><flowPara
         style="font-size:27.5px;line-height:1.25"
         id="flowPara4537">Funding</flowPara></flowRoot>    <g
       transform="translate(-1.4305115e-6,0.00194418)"
       id="g6881">
      <rect
         y="836.73718"
         x="45.267857"
         height="14.732142"
         width="54.727795"
         id="rect4162"
         style="fill:#e6e6e6;fill-opacity:1;stroke:none;stroke-width:3.59033203;stroke-miterlimit:4;stroke-dasharray:none;stroke-dashoffset:0;stroke-opacity:1" />
      <g
         id="g6842">
        <rect
           style="fill:#e6e6e6;fill-opacity:0;stroke:#000000;stroke-width:1.77165353;stroke-miterlimit:4;stroke-dasharray:none;stroke-dashoffset:0;stroke-opacity:1"
           id="rect4138"
           width="54.285713"
           height="16.785715"
           x="45.494938"
           y="835.18872" />
        <flowRoot
           xml:space="preserve"
           id="flowRoot4140"
           style="font-style:normal;font-variant:normal;font-weight:normal;font-stretch:normal;line-height:0.01%;font-family:'Franklin Gothic Medium';-inkscape-font-specification:'Franklin Gothic Medium, ';text-align:center;letter-spacing:0px;word-spacing:0px;text-anchor:middle;fill:#000000;fill-opacity:1;stroke:none;stroke-width:1px;stroke-linecap:butt;stroke-linejoin:miter;stroke-opacity:1"
           transform="translate(20.455589,801.46773)"><flowRegion
             id="flowRegion4142"><rect
               id="rect4144"
               width="54.512798"
               height="13.861483"
               x="24.812267"
               y="36.645214"
               style="font-style:normal;font-variant:normal;font-weight:normal;font-stretch:normal;font-size:10px;font-family:'Franklin Gothic Medium';-inkscape-font-specification:'Franklin Gothic Medium, ';text-align:center;text-anchor:middle" /></flowRegion><flowPara
             id="flowPara4146"
             style="font-size:10px;line-height:1.25">Demand</flowPara></flowRoot>      </g>
    </g>
    <rect
       style="fill:none;stroke:#000000;stroke-width:8.43334675;stroke-miterlimit:4;stroke-dasharray:none;stroke-dashoffset:0;stroke-opacity:1"
       id="rect4136"
       width="136.84224"
       height="214.795"
       x="4.2166734"
       y="833.35052" />
    <g
       id="g4720"
       transform="matrix(0.18735057,0,0,0.18735057,29.532155,918.35844)"
       style="stroke-width:5.00398827">
      <g
         id="XMLID_473_"
         style="stroke-width:5.00398827">
        <circle
           r="37.758999"
           cy="37.937"
           cx="367.62"
           id="XMLID_474_"
           style="stroke-width:5.00398827" />
        <path
           d="m 459.928,218.503 c 0.057,-0.016 0.113,-0.035 0.17,-0.052 l -0.441,-87.715 c -0.12,-23.721 -19.516,-43.02 -43.237,-43.02 h -19.243 c -2.393,6.253 -19.566,52.464 -22.133,59.171 l 5.34,-25.155 c 0.375,-1.766 0.103,-3.609 -0.767,-5.191 l -7.333,-13.337 6.52,-11.554 c 0.452,-0.822 0.436,-1.822 -0.041,-2.63 -0.478,-0.808 -1.346,-1.303 -2.285,-1.303 h -17.893 c -0.938,0 -1.807,0.495 -2.285,1.303 -0.478,0.808 -0.493,1.807 -0.041,2.63 l 6.519,11.554 -7.36,13.387 c -0.854,1.552 -1.132,3.356 -0.787,5.094 l 4.669,25.203 c -1.423,-3.65 -21.349,-59.156 -21.349,-59.156 h -19.388 c -23.108,0 -42.1,18.366 -43.075,41.267 l -7.977,48.586 -28.111,35.004 0.438,0.401 c 12.232,11.193 14.36,29.292 5.895,42.872 4.127,-0.773 8.013,-2.945 10.849,-6.476 l 42.338,-52.718 c 1.965,-2.447 3.265,-5.36 3.773,-8.457 0,0 6.137,-43.8 9.193,-57.399 0.382,-1.698 1.979,-2.838 3.709,-2.645 1.73,0.193 3.036,1.656 3.036,3.396 l 0.071,306.492 c 0,12.109 9.816,21.925 21.925,21.925 11.488,0 20.906,-8.837 21.842,-20.083 0.119,-0.922 0.187,-1.86 0.187,-2.815 V 266.564 c 0.451,-2.144 2.351,-3.755 4.629,-3.755 2.614,0 4.733,2.119 4.733,4.733 v 170.514 c 0,12.109 9.816,21.925 21.925,21.925 12.109,0 21.925,-9.816 21.925,-21.925 v -37.345 c -0.015,-0.008 -0.03,-0.018 -0.046,-0.026 V 279.32 c 0.016,-0.008 0.03,-0.018 0.046,-0.026 0,-7.338 -0.018,-11.497 -0.046,-14.968 v -1.995 c 0,-0.38 -0.01,-0.757 -0.029,-1.131 -0.113,-11.021 -0.315,-23.047 -0.323,-130.204 0,-2.097 1.689,-3.803 3.786,-3.824 1.814,-0.018 3.344,1.233 3.751,2.929 0.026,0.235 0.042,0.472 0.043,0.714 l 0.672,133.849 c 0.05,10.031 8.197,18.128 18.217,18.128 0.03,0 0.063,0 0.094,0 10.062,-0.05 18.178,-8.248 18.127,-18.31 z"
           id="XMLID_884_"
           inkscape:connector-curvature="0"
           style="stroke-width:5.00398827" />
        <circle
           r="37.758999"
           cy="37.937"
           cx="96.721001"
           id="XMLID_885_"
           style="stroke-width:5.00398827" />
        <path
           d="m 188.873,187.573 c -0.113,-22.532 -0.029,-5.826 -0.286,-56.941 -0.118,-23.655 -19.459,-42.899 -43.114,-42.899 -10.124,0 -87.65,0 -97.81,0 -23.654,0 -42.995,19.244 -43.115,42.899 L 3.875,264.48 c -0.032,6.439 3.308,12.16 8.421,15.433 v 15.15 H 7.529 C 3.371,295.063 0,298.434 0,302.592 v 74.274 c 0,4.158 3.371,7.529 7.529,7.529 h 28.323 c 4.158,0 7.529,-3.371 7.529,-7.529 v -74.274 c 0,-4.158 -3.371,-7.529 -7.529,-7.529 H 31 v -14.607 c 5.503,-3.091 9.28,-9.008 9.313,-15.793 l 0.672,-133.848 v -0.002 c 0.01,-1.939 1.588,-3.505 3.528,-3.499 1.939,0.005 3.508,1.579 3.508,3.519 l 0.008,151.779 c 6.729,4.116 11.229,11.532 11.229,19.981 v 74.274 c 0,8.449 -4.5,15.865 -11.229,19.981 v 41.271 c 0,12.075 9.789,21.863 21.863,21.863 12.074,0 21.863,-9.788 21.863,-21.863 0,-0.795 0.012,-143.122 -0.016,-171.063 -0.001,-1.253 0.495,-2.454 1.381,-3.341 0.886,-0.887 2.087,-1.384 3.339,-1.384 h 0.037 c 1.251,0 2.45,0.497 3.334,1.382 0.884,0.885 1.38,2.085 1.379,3.336 -0.028,27.924 -0.016,170.275 -0.016,171.07 0,12.075 9.789,21.863 21.863,21.863 12.074,0 21.863,-9.788 21.863,-21.863 l -0.388,-307.308 c -0.003,-2.103 1.7,-3.81 3.803,-3.813 2.103,-0.003 3.811,1.699 3.814,3.802 0,0.005 0,0.009 0,0.014 0.032,6.422 0.293,58.406 0.326,64.912 0.025,5.081 2.172,9.92 5.92,13.35 l 46.279,42.345 c 7.42,6.79 18.944,6.284 25.74,-1.143 6.793,-7.424 6.281,-18.948 -1.143,-25.74 z"
           id="XMLID_886_"
           inkscape:connector-curvature="0"
           style="stroke-width:5.00398827" />
      </g>
      <g
         id="g4663"
         style="stroke-width:5.00398827" />
      <g
         id="g4665"
         style="stroke-width:5.00398827" />
      <g
         id="g4667"
         style="stroke-width:5.00398827" />
      <g
         id="g4669"
         style="stroke-width:5.00398827" />
      <g
         id="g4671"
         style="stroke-width:5.00398827" />
      <g
         id="g4673"
         style="stroke-width:5.00398827" />
      <g
         id="g4675"
         style="stroke-width:5.00398827" />
      <g
         id="g4677"
         style="stroke-width:5.00398827" />
      <g
         id="g4679"
         style="stroke-width:5.00398827" />
      <g
         id="g4681"
         style="stroke-width:5.00398827" />
      <g
         id="g4683"
         style="stroke-width:5.00398827" />
      <g
         id="g4685"
         style="stroke-width:5.00398827" />
      <g
         id="g4687"
         style="stroke-width:5.00398827" />
      <g
         id="g4689"
         style="stroke-width:5.00398827" />
      <g
         id="g4691"
         style="stroke-width:5.00398827" />
    </g>
  </g>
</svg>
